<?xml version="1.0" encoding="UTF-8"?>
<svg width="512px" height="512px" viewBox="0 0 512 512" version="1.1" xmlns="http://www.w3.org/2000/svg" xmlns:xlink="http://www.w3.org/1999/xlink">
    <!-- Generator: Sketch 55.2 (78181) - https://sketchapp.com -->
    <title>svg/cart</title>
    <desc>Created with Sketch.</desc>
    <defs>
        <path d="M179.085937,404.636719 C191.788487,404.636719 202.085937,394.339268 202.085937,381.636719 C202.085937,368.93417 191.788487,358.636719 179.085937,358.636719 C166.383388,358.636719 156.085937,368.93417 156.085937,381.636719 C156.085937,394.339268 166.383388,404.636719 179.085937,404.636719 Z M179.085937,388.636719 C175.219944,388.636719 172.085937,385.502712 172.085937,381.636719 C172.085937,377.770726 175.219944,374.636719 179.085937,374.636719 C182.951931,374.636719 186.085937,377.770726 186.085937,381.636719 C186.085937,385.502712 182.951931,388.636719 179.085937,388.636719 Z M331.40625,404.636719 C344.108799,404.636719 354.40625,394.339268 354.40625,381.636719 C354.40625,368.93417 344.108799,358.636719 331.40625,358.636719 C318.703701,358.636719 308.40625,368.93417 308.40625,381.636719 C308.40625,394.339268 318.703701,404.636719 331.40625,404.636719 Z M331.40625,388.636719 C327.540257,388.636719 324.40625,385.502712 324.40625,381.636719 C324.40625,377.770726 327.540257,374.636719 331.40625,374.636719 C335.272243,374.636719 338.40625,377.770726 338.40625,381.636719 C338.40625,385.502712 335.272243,388.636719 331.40625,388.636719 Z M170.737417,159.03125 L371.8125,159.03125 C380.15702,159.03125 385.95409,167.337142 383.076294,175.169721 L352.334106,288.240034 C350.709759,292.661065 346.649282,295.723057 341.952021,296.069127 L200.167637,306.515069 C200.117374,307.719563 199.493136,309.48928 198.294922,311.824219 L193.594587,331.628906 L342,331.628906 C348.627417,331.628906 354,337.001489 354,343.628906 C354,350.256323 348.627417,355.628906 342,355.628906 L168.851563,355.628906 C159.623211,355.628906 159.848561,344.646931 164.448862,336.646949 L175.712374,307.520493 L143.965027,145 L112,145 C105.372583,145 100,139.627417 100,133 C100,126.372583 105.372583,121 112,121 L153.314909,121 C158.812312,121 163.606679,124.735564 164.950734,130.066132 L170.737417,159.03125 Z M175.532163,183.03125 L184.39494,227.393684 L225.128348,226.185286 L219.903989,186.038166 C219.770471,185.012132 219.785992,183.999786 219.931616,183.03125 L175.532163,183.03125 Z M187.574002,243.306413 L195.463397,282.796606 L232.143534,280.094202 L227.203339,242.130768 L187.574002,243.306413 Z M248.033767,278.923492 L287.674062,276.002999 L288.36994,240.316198 L243.184224,241.656679 L248.033767,278.923492 Z M235.55316,183.03125 C235.563745,183.101771 235.573672,183.172612 235.582931,183.243766 L241.109233,225.711196 L288.682251,224.299894 L289.45873,184.479617 C289.468353,183.986081 289.510174,183.502377 289.581761,183.03125 L235.55316,183.03125 Z M305.109627,183.03125 C305.202182,183.639744 305.244754,184.268221 305.232233,184.910348 L304.473288,223.831437 L344.839008,222.633946 L354.619212,183.03125 L305.109627,183.03125 Z M340.856766,238.759123 L304.160977,239.847741 L303.47867,274.838597 L332.474212,272.702355 L340.856766,238.759123 Z" id="path-1"></path>
    </defs>
    <g id="svg/cart" stroke="none" stroke-width="1" fill="none" fill-rule="evenodd">
        <circle id="Oval" fill="#F35B5B" fill-rule="nonzero" cx="256" cy="256" r="256"></circle>
        <mask id="mask-2" fill="white">
            <use xlink:href="#path-1"></use>
        </mask>
        <use id="Combined-Shape" fill="#FFFFFF" fill-rule="nonzero" xlink:href="#path-1"></use>
    </g>
</svg>