<?xml version="1.0" encoding="UTF-8"?>
<svg width="20px" height="20px" viewBox="0 0 20 20" version="1.1" xmlns="http://www.w3.org/2000/svg" xmlns:xlink="http://www.w3.org/1999/xlink">
    <!-- Generator: Sketch 55.2 (78181) - https://sketchapp.com -->
    <title>icon/exclamation-triangle</title>
    <desc>Created with Sketch.</desc>
    <defs>
        <path d="M18.7821369,15.7615141 C19.3579478,16.759862 18.6351738,18.0078125 17.4851117,18.0078125 L2.51471392,18.0078125 C1.36243696,18.0078125 0.643000857,16.7579273 1.21768874,15.7615141 L8.70298121,2.77968345 C9.27907289,1.78086747 10.7219693,1.78267731 11.2970316,2.77968345 L18.7821369,15.7615141 Z M10.0000064,13.0775452 C9.20747868,13.0775452 8.56500246,13.7201962 8.56500246,14.5129395 C8.56500246,15.3056828 9.20747868,15.9483338 10.0000064,15.9483338 C10.7925341,15.9483338 11.4350103,15.3056828 11.4350103,14.5129395 C11.4350103,13.7201962 10.7925341,13.0775452 10.0000064,13.0775452 Z M8.63759494,7.9180517 L8.86900492,12.1618261 C8.87982984,12.3604098 9.04398182,12.5158692 9.24279225,12.5158692 L10.7572205,12.5158692 C10.956031,12.5158692 11.1201829,12.3604098 11.1310079,12.1618261 L11.3624178,7.9180517 C11.3741162,7.70355387 11.203382,7.52319346 10.9886305,7.52319346 L9.01135107,7.52319346 C8.79659962,7.52319346 8.62589654,7.70355387 8.63759494,7.9180517 L8.63759494,7.9180517 Z" id="path-1"></path>
    </defs>
    <g id="icon/exclamation-triangle" stroke="none" stroke-width="1" fill="none" fill-rule="evenodd">
        <mask id="mask-2" fill="white">
            <use xlink:href="#path-1"></use>
        </mask>
        <use id="Mask" fill="#000000" fill-rule="nonzero" xlink:href="#path-1"></use>
        <g id="color/red" mask="url(#mask-2)" fill="#FFFFFF">
            <rect id="red" x="0" y="0" width="20" height="20"></rect>
        </g>
    </g>
</svg>