<?xml version="1.0" encoding="UTF-8"?>
<svg width="512px" height="512px" viewBox="0 0 512 512" version="1.1" xmlns="http://www.w3.org/2000/svg" xmlns:xlink="http://www.w3.org/1999/xlink">
    <!-- Generator: Sketch 55.2 (78181) - https://sketchapp.com -->
    <title>svg/fb-messenger</title>
    <desc>Created with Sketch.</desc>
    <g id="svg/fb-messenger" stroke="none" stroke-width="1" fill="none" fill-rule="evenodd">
        <g id="icon/fb-messenger" transform="translate(4.000000, 3.000000)" fill-rule="nonzero">
            <path d="M256,0 C111.774648,0 0,104.559676 0,245.773865 C0,319.64367 30.5963783,383.470445 80.4056337,427.568016 C84.5778672,431.289545 87.1018109,436.438509 87.307847,441.995314 L88.6985915,487.061504 C89.162173,501.437821 104.151308,510.767135 117.440644,505.00641 L168.228571,482.830174 C172.555332,480.943921 177.345674,480.587063 181.878471,481.810577 C205.212072,488.183059 230.090945,491.547729 256,491.547729 C400.225352,491.547729 512,386.988054 512,245.773865 C512,104.559676 400.225352,0 256,0 Z" id="Path" fill="#4A9CFF"></path>
            <path d="M409.703019,189.08427 L334.499799,307.153606 C322.549698,325.914191 296.898189,330.604339 278.973037,317.298596 L219.171026,272.895146 C213.659557,268.816757 206.139235,268.867737 200.679275,272.946126 L119.913078,333.612149 C109.147686,341.717945 95.0342051,328.922003 102.296982,317.604476 L177.500201,199.535139 C189.450302,180.774554 215.101811,176.084408 233.026961,189.390149 L292.828974,233.793599 C298.340443,237.871988 305.860765,237.821008 311.320723,233.742619 L392.086921,173.076596 C402.852313,164.9708 416.965795,177.766743 409.703019,189.08427 Z" id="Path" fill="#FFFFFF"></path>
        </g>
    </g>
</svg>