<?xml version="1.0" encoding="UTF-8"?>
<svg width="512px" height="511px" viewBox="0 0 512 511" version="1.1" xmlns="http://www.w3.org/2000/svg" xmlns:xlink="http://www.w3.org/1999/xlink">
    <!-- Generator: Sketch 55.2 (78181) - https://sketchapp.com -->
    <title>svg/fb</title>
    <desc>Created with Sketch.</desc>
    <g id="svg/fb" stroke="none" stroke-width="1" fill="none" fill-rule="evenodd">
        <path d="M512,256 C512,114.615001 397.384999,0 256,0 C114.615001,0 0,114.615001 0,256 C0,383.775001 93.615,489.685001 216,508.89 L216,330 L151,330 L151,256 L216,256 L216,199.6 C216,135.44 254.22,100 312.695001,100 C340.695001,100 370,105 370,105 L370,168 L337.72,168 C305.92,168 296,187.735001 296,208 L296,256 L367,256 L355.65,330 L296,330 L296,508.89 C418.384999,489.685001 512,383.775001 512,256 Z" id="Path" fill="#4A9CFF"></path>
        <path d="M355.65,330 L367,256 L296,256 L296,208 C296,187.754999 305.92,168 337.72,168 L370,168 L370,105 C370,105 340.705001,100 312.695001,100 C254.22,100 216,135.44 216,199.6 L216,256 L151,256 L151,330 L216,330 L216,508.89 C242.505466,513.036662 269.494534,513.036662 296,508.89 L296,330 L355.65,330 Z" id="Path" fill="#FFFFFF" fill-rule="nonzero"></path>
    </g>
</svg>