<?xml version="1.0" encoding="UTF-8"?>
<svg width="512px" height="490px" viewBox="0 0 512 490" version="1.1" xmlns="http://www.w3.org/2000/svg" xmlns:xlink="http://www.w3.org/1999/xlink">
    <!-- Generator: Sketch 55.2 (78181) - https://sketchapp.com -->
    <title>svg/hi-life</title>
    <desc>Created with Sketch.</desc>
    <g id="svg/hi-life" stroke="none" stroke-width="1" fill="none" fill-rule="evenodd">
        <g transform="translate(-1.000000, -1.000000)" fill-rule="nonzero" id="Group">
            <g transform="translate(0.688000, 0.712000)">
                <path d="M506.7312,103.2256 L504.9904,97.3888 C498.2832,75.296 486.072,55.8912 468.7408,39.712 C451.7936,23.584 430.4432,12.192 405.304,5.8944 L401.6176,4.6656 L358.7632,0.544 L358.584,0.5184 L358.4048,0.5184 C343.0192,1.312 326.2512,5.4848 308.5616,12.96 L308.5104,12.9856 C291.8192,20.5632 274.0016,32.16 255.5184,47.4176 L250.6544,42.5536 L231.3008,27.296 L231.1472,27.1936 C222.4944,21.28 212.1264,15.904 200.3504,11.1936 C188.1392,6.0736 174.5712,2.6688 160.0048,1.1072 L159.7744,1.0816 L112.1328,4.64 L111.9792,4.6656 C95.032,8.224 76.8816,16.1856 58.0656,28.3456 L58.04,28.3712 C35.512,43.3728 19.3072,62.9824 9.8096,86.7136 C0.3632,110.7264 -2.0432,138.4512 2.6672,169.0688 L2.6672,169.0944 C7.736,199.5584 20.2032,232.608 39.6848,267.296 C59.5248,302.2912 87.3008,338.9504 122.2448,376.224 L122.2704,376.2496 C157.9568,413.1136 202.2192,450.8736 253.7776,488.48 L255.288,489.5808 L273.7456,476.2176 L315.7552,442.9632 L315.832,442.912 L371.8704,391.5328 L371.9472,391.456 L430.3408,327.2256 L430.4176,327.1232 C449.4896,303.776 466.0528,278.9184 479.672,253.2416 L481.4896,249.6064 L499.5888,205.216 L499.6144,205.1392 C505.4768,189.088 509.4448,172.2176 511.416,154.9888 C513.464,137.6064 511.8512,120.1984 506.7312,103.2256 Z" id="Path" fill="#FF0000"></path>
                <path d="M506.3984,154.4 C504.4784,171.1936 500.6128,187.6544 494.904,203.3216 L476.8816,247.5072 L475.192,250.8864 C461.752,276.2304 445.368,300.7808 426.552,323.8464 L368.3632,387.8464 L312.5552,439.0208 L270.6992,472.1728 L255.3392,483.2832 C204.6512,446.2144 161.1568,409.0176 126.008,372.7424 C91.3456,335.7504 63.8,299.4496 44.1904,264.8128 C24.9648,230.6368 12.7024,198.1504 7.736,168.2752 C5.4576,153.4016 4.8688,139.1424 6.0208,125.9072 C7.1728,112.6976 10.04,100.1536 14.5968,88.5824 C19.128,77.216 25.3232,66.7712 33.0032,57.4784 C40.6832,48.1856 50.0528,39.84 60.856,32.6208 C79.0832,20.8448 96.5936,13.1392 112.8752,9.7088 L159.6976,6.2528 C173.6752,7.7888 186.7056,11.04 198.4048,15.9552 L198.456,15.9808 C209.848,20.5376 219.8576,25.7344 228.2032,31.4176 L247.2496,46.4192 L255.2112,54.3808 L257.0032,52.8704 C275.768,37.1776 293.816,25.3248 310.6096,17.696 C327.6592,10.5024 343.7616,6.4576 358.5072,5.664 L400.5936,9.7088 L403.768,10.784 L403.9472,10.8352 C428.2672,16.928 448.8752,27.8848 465.1824,43.4496 L465.208,43.4752 C481.8992,59.0144 493.624,77.6768 500.0752,98.8992 L501.816,104.736 C506.7568,121.0176 508.2928,137.7344 506.3984,154.4 Z" id="Path" fill="#FFFFFF"></path>
                <path d="M485.6112,103.968 C477.4448,75.1936 459.96,53.2544 433.1312,38.0736 C415.2624,28.3456 398.3408,22.3296 382.4176,20 L339.2816,21.1776 C326.072,24.2752 314.2192,28.5504 303.7232,34.0032 L277.4832,52.0768 L260.5872,67.8208 L254.7504,74.8096 L248.9136,67.8208 L232.0176,52.0768 L205.7776,34.0032 C195.2816,28.5504 183.4288,24.2752 170.2192,21.1776 L126.4688,20 C110.9296,22.3296 94.2128,28.3456 76.3184,38.0736 C49.5152,53.2544 32.0304,75.1936 23.864,103.968 C15.6976,132.7424 18.232,166.3552 31.4416,204.832 C44.2672,243.3088 68.9456,284.704 105.4768,329.0176 C142.392,373.3312 192.1584,418.6176 254.7248,464.8512 C317.2912,418.592 367.0576,373.3056 403.9728,329.0176 C440.504,284.704 465.3872,243.3088 478.5968,204.832 C491.448,166.3552 493.7776,132.7168 485.6112,103.968 Z" id="Path" fill="#FF0000"></path>
                <path d="M152.12,253.216 L148.6128,261.9712 C145.114133,264.9408 142.195733,266.2976 139.8576,266.0416 C136.3504,265.6576 133.432,264.3008 131.1024,261.9712 C128.7728,259.6416 127.5952,256.7232 127.5952,253.216 L127.5952,221.728 L108.344,221.728 L108.344,253.216 L104.8368,261.9712 C101.9184,264.6848 99,266.0416 96.0816,266.0416 C93.1632,266.0416 90.2448,264.6848 87.3264,261.9712 C84.9968,259.6416 83.8192,256.7232 83.8192,253.216 L83.8192,165.1776 C83.8192,161.2864 84.9968,158.1888 87.3264,155.8592 C89.656,153.5296 92.5744,152.352 96.0816,152.352 C99.5888,152.352 102.5072,153.5296 104.8368,155.8592 L108.344,165.1776 L108.344,197.8176 L127.5952,197.8176 L127.5952,165.1776 C127.5952,161.2864 128.7728,158.1888 131.1024,155.8592 C133.432,153.5296 136.3504,152.352 139.8576,152.352 C143.3648,152.352 146.2832,153.5296 148.6128,155.8592 L152.12,165.1776 L152.12,253.216 Z" id="Path" fill="#FFFFFF"></path>
                <path d="M191.1856,253.216 L187.6784,261.9712 C184.76,264.6848 181.8416,266.0416 178.9232,266.0416 C176.0048,266.0416 173.0864,264.6848 170.168,261.9712 C167.8384,259.6416 166.6608,256.7232 166.6608,253.216 L166.6608,188.4992 C166.6608,184.608 167.8384,181.5104 170.168,179.1808 C172.4976,176.8512 175.416,175.6736 178.9232,175.6736 C182.4304,175.6736 185.3488,176.8512 187.6784,179.1808 L191.1856,188.4992 L191.1856,253.216 Z" id="Path" fill="#FFFFFF"></path>
                <path d="M178.9488,162.2592 C172.344,159.1616 166.5072,154.2976 161.464,147.6928 C156.8048,141.088 153.6816,134.4832 152.1456,127.8784 C150.968,120.8896 152.7344,115.6416 157.3936,112.1344 C162.0528,109.0368 165.944,107.8592 169.0416,108.6272 C172.1392,109.0112 174.4944,109.984 176.0304,111.5456 L178.9488,115.0528 L181.8672,111.5456 C183.4288,109.984 185.7584,109.0112 188.856,108.6272 C191.9536,107.8592 195.8448,109.0112 200.504,112.1344 C205.1632,116.0256 206.9296,121.2736 205.752,127.8784 C204.5744,134.4832 201.4768,141.088 196.4336,147.6928 L178.9488,162.2592 Z" id="Path" fill="#FFFFFF"></path>
                <path d="M228.5104,247.3792 L220.344,250.8864 L208.1072,250.8864 C205.0096,250.5024 202.4752,249.3248 200.5296,247.3792 C198.2,245.0496 197.0224,242.1312 197.0224,238.624 C197.0224,235.5264 198.2,232.7872 200.5296,230.4576 C202.4752,228.128 205.0096,226.9504 208.1072,226.9504 L220.344,226.9504 C223.4416,226.9504 226.1808,228.128 228.5104,230.4576 L232.0176,238.624 L228.5104,247.3792 Z" id="Path" fill="#FFFFFF"></path>
                <path d="M283.8832,262.56 C281.9376,264.5056 279.224,265.6576 275.7168,266.0672 L250.6544,266.0672 L250.0656,266.0672 L249.4768,266.0672 L240.7216,261.9968 C238.392,259.6672 237.2144,256.7488 237.2144,253.2416 L237.2144,165.1776 C237.2144,161.2864 238.392,158.1888 240.7216,155.8592 C243.0512,153.5296 245.9696,152.352 249.4768,152.352 C251.814933,152.352 254.733333,153.521067 258.232,155.8592 L261.7392,165.1776 L261.7392,242.1312 L275.7424,242.1312 C279.2496,242.5152 281.9632,243.6928 283.9088,245.6384 L287.416,254.3936 L283.8832,262.56 Z" id="Path" fill="#FFFFFF"></path>
                <path d="M293.2272,141.856 C296.3248,138.7584 300.0368,137.1968 304.312,137.1968 C308.5872,137.1968 312.2736,138.7584 315.3968,141.856 C318.1104,144.9536 319.4672,148.6656 319.4672,152.9408 C319.4672,157.6 318.1104,161.4912 315.3968,164.5888 C312.2992,167.3024 308.5872,168.6592 304.312,168.6592 C300.0368,168.6592 296.3504,167.3024 293.2272,164.5888 C290.5136,161.4912 288.952,157.6 288.568,152.9408 C288.952,148.6656 290.488,144.9792 293.2272,141.856 Z" id="Path" fill="#FFFFFF"></path>
                <path d="M440.1456,214.7392 L437.816,225.824 C436.2544,229.3312 433.5408,231.2768 429.6496,231.6608 L414.4944,231.6608 L398.7504,231.6608 L391.1728,231.6608 L391.7616,233.4016 L394.68,236.9088 L398.7504,239.2384 L401.08,239.8272 L416.824,239.8272 L419.5648,239.8272 L424.4016,243.3344 C426.3472,244.896 427.4992,247.6096 427.9088,251.5008 C428.181867,254.094933 426.825067,257.201067 423.8384,260.8192 L418.0016,263.7376 L416.2608,263.7376 L399.928,263.7376 L395.832,263.7376 L387.0768,261.408 L381.24,257.3376 L371.3328,247.4304 C368.2352,242.7712 365.7008,237.3184 363.7552,231.0976 L354.4368,231.0976 L354.4368,313.2992 L350.9296,322.0544 C348.0112,324.768 345.0928,326.1248 342.1744,326.1248 C339.256,326.1248 336.3376,324.768 333.4192,322.0544 C331.4736,319.7248 330.5008,316.8064 330.5008,313.2992 L330.5008,231.072 L317.0864,231.072 L317.0864,253.8048 L313.5792,262.56 C310.080533,264.898133 307.162133,266.0672 304.824,266.0672 C301.3168,266.0672 298.3984,264.8896 296.0688,262.56 C293.7392,260.2304 292.5616,257.312 292.5616,253.8048 L292.5616,189.088 C292.5616,185.1968 293.7392,182.0992 296.0688,179.7696 C298.3984,177.44 301.3168,176.0832 304.824,175.6992 C308.3312,176.0832 311.2496,177.44 313.5792,179.7696 L317.0864,189.088 L317.0864,207.7504 L330.5008,207.7504 L330.5008,150.6112 C330.5008,146.72 331.4736,143.6224 333.4192,141.2928 C335.7488,138.9632 338.6672,137.7856 342.1744,137.7856 L367.8256,137.7856 C370.9232,137.7856 373.4576,138.9632 375.4032,141.2928 L378.9104,149.4592 L375.4032,158.2144 C373.4576,160.16 370.9232,161.312 367.8256,161.7216 L354.4112,161.7216 L354.4112,207.776 L363.7296,207.776 C364.1136,204.6784 365.6752,200.5824 368.3888,195.5392 C371.1024,190.0864 375.1984,185.248 380.6256,180.9728 C386.0784,176.6976 393.4512,174.368 402.7696,173.984 C410.936,174.368 417.5408,176.1344 422.584,179.232 L433.6688,190.88 L438.9168,203.1168 L440.0944,209.5424 L440.0944,214.7392 L440.1456,214.7392 Z" id="Path" fill="#FFFFFF"></path>
                <path d="M403.4096,193.7472 C399.5184,194.1312 396.216,195.488 393.5024,197.8176 C390.4048,200.5312 388.8432,203.6544 388.8432,207.136 L388.8432,207.7248 L418.0016,207.7248 L418.0016,207.136 L413.9312,197.8176 C411.192,195.5136 407.6848,194.1312 403.4096,193.7472 Z" id="Path" fill="#FF0000"></path>
            </g>
        </g>
    </g>
</svg>