<?xml version="1.0" encoding="UTF-8"?>
<svg width="512px" height="512px" viewBox="0 0 512 512" version="1.1" xmlns="http://www.w3.org/2000/svg" xmlns:xlink="http://www.w3.org/1999/xlink">
    <!-- Generator: Sketch 55.2 (78181) - https://sketchapp.com -->
    <title>svg/line</title>
    <desc>Created with Sketch.</desc>
    <g id="svg/line" stroke="none" stroke-width="1" fill="none" fill-rule="evenodd">
        <circle id="Oval" fill="#7EC163" fill-rule="nonzero" cx="257.692562" cy="256.42314" r="253.884298"></circle>
        <path d="M258.115702,104.092562 C165.024793,104.092562 89.2826446,165.447934 89.2826446,241.190083 C89.2826446,308.892562 149.368595,365.593388 230.61157,376.595041 C236.112397,377.864463 243.728926,380.403306 245.421488,385.057851 C247.11405,389.289256 246.690909,396.059504 245.844628,400.290909 C245.844628,400.290909 243.728926,412.138843 243.305785,414.677686 C242.459504,418.909091 239.920661,431.180165 258.115702,423.986777 C276.310744,416.370248 355.438017,366.86281 390.981818,325.818182 C415.100826,298.73719 426.94876,271.656198 426.94876,241.190083 C426.94876,165.447934 351.206612,104.092562 258.115702,104.092562 Z" id="Path" fill="#FFFFFF" fill-rule="nonzero"></path>
        <path d="M370.671074,223.418182 C372.363636,223.418182 374.056198,222.14876 374.056198,220.033058 L374.056198,208.185124 C374.056198,206.492562 372.786777,204.8 370.671074,204.8 L323.279339,204.8 L323.279339,204.8 C322.433058,204.8 321.586777,205.22314 321.163636,205.646281 C321.163636,205.646281 321.163636,205.646281 321.163636,205.646281 C321.163636,205.646281 321.163636,205.646281 321.163636,205.646281 C320.740496,206.069421 320.317355,206.915702 320.317355,207.761983 L320.317355,207.761983 L320.317355,281.38843 L320.317355,281.38843 C320.317355,282.234711 320.740496,283.080992 321.163636,283.504132 C321.163636,283.504132 321.163636,283.504132 321.163636,283.504132 C321.163636,283.504132 321.163636,283.504132 321.163636,283.504132 C321.586777,283.927273 322.433058,284.350413 323.279339,284.350413 L323.279339,284.350413 L370.671074,284.350413 C372.363636,284.350413 374.056198,283.080992 374.056198,280.965289 L374.056198,269.117355 C374.056198,267.424793 372.786777,265.732231 370.671074,265.732231 L338.512397,265.732231 L338.512397,253.461157 L370.671074,253.461157 C372.363636,253.461157 374.056198,252.191736 374.056198,250.076033 L374.056198,238.228099 C374.056198,236.535537 372.786777,234.842975 370.671074,234.842975 L338.512397,234.842975 L338.512397,222.571901 L370.671074,222.571901 L370.671074,223.418182 Z" id="Path" fill="#7EC163" fill-rule="nonzero"></path>
        <path d="M305.084298,204.8 L293.236364,204.8 C291.543802,204.8 289.85124,206.069421 289.85124,208.185124 L289.85124,251.768595 L256,206.069421 C256,206.069421 256,205.646281 255.57686,205.646281 C255.57686,205.646281 255.57686,205.646281 255.57686,205.646281 C255.57686,205.646281 255.57686,205.646281 255.57686,205.646281 C255.57686,205.646281 255.57686,205.646281 255.57686,205.646281 C255.57686,205.646281 255.57686,205.646281 255.57686,205.646281 C255.57686,205.646281 255.57686,205.646281 255.57686,205.646281 C255.57686,205.646281 255.57686,205.646281 255.57686,205.646281 C255.57686,205.646281 255.57686,205.646281 255.57686,205.646281 C255.57686,205.646281 255.57686,205.646281 255.57686,205.646281 C255.57686,205.646281 255.57686,205.646281 255.57686,205.646281 C255.57686,205.646281 255.57686,205.646281 255.57686,205.646281 C255.57686,205.646281 255.57686,205.646281 255.57686,205.646281 C255.57686,205.646281 255.57686,205.646281 255.57686,205.646281 C255.57686,205.646281 255.57686,205.646281 255.57686,205.646281 C255.57686,205.646281 255.57686,205.646281 255.57686,205.646281 C255.57686,205.646281 255.57686,205.646281 255.57686,205.646281 C255.57686,205.646281 255.57686,205.646281 255.57686,205.646281 C255.57686,205.646281 255.57686,205.646281 255.57686,205.646281 C255.57686,205.646281 255.57686,205.646281 255.57686,205.646281 L243.728926,205.646281 C242.036364,205.646281 240.343802,206.915702 240.343802,209.031405 L240.343802,282.657851 C240.343802,284.350413 241.613223,286.042975 243.728926,286.042975 L255.57686,286.042975 C257.269421,286.042975 258.961983,284.773554 258.961983,282.657851 L258.961983,239.07438 L292.813223,284.773554 C293.236364,285.196694 293.236364,285.196694 293.659504,285.619835 C293.659504,285.619835 293.659504,285.619835 293.659504,285.619835 C293.659504,285.619835 293.659504,285.619835 293.659504,285.619835 C293.659504,285.619835 293.659504,285.619835 293.659504,285.619835 C293.659504,285.619835 293.659504,285.619835 293.659504,285.619835 C293.659504,285.619835 293.659504,285.619835 293.659504,285.619835 C293.659504,285.619835 293.659504,285.619835 293.659504,285.619835 C293.659504,285.619835 293.659504,285.619835 294.082645,285.619835 C294.082645,285.619835 294.082645,285.619835 294.082645,285.619835 C294.505785,285.619835 294.505785,285.619835 294.928926,285.619835 L306.77686,285.619835 C308.469421,285.619835 310.161983,284.350413 310.161983,282.234711 L310.161983,208.608264 C308.469421,206.492562 306.77686,204.8 305.084298,204.8" id="Path" fill="#7EC163" fill-rule="nonzero"></path>
        <path d="M223.418182,204.8 L211.570248,204.8 C209.877686,204.8 208.185124,206.069421 208.185124,208.185124 L208.185124,281.81157 C208.185124,283.504132 209.454545,285.196694 211.570248,285.196694 L223.418182,285.196694 C225.110744,285.196694 226.803306,283.927273 226.803306,281.81157 L226.803306,208.185124 C226.803306,206.492562 225.533884,204.8 223.418182,204.8" id="Path" fill="#7EC163" fill-rule="nonzero"></path>
        <path d="M195.067769,266.578512 L162.909091,266.578512 L162.909091,208.185124 C162.909091,206.492562 161.639669,204.8 159.523967,204.8 L147.676033,204.8 C145.983471,204.8 144.290909,206.069421 144.290909,208.185124 L144.290909,281.81157 L144.290909,281.81157 C144.290909,282.657851 144.71405,283.504132 145.13719,283.927273 C145.13719,283.927273 145.13719,283.927273 145.13719,283.927273 C145.13719,283.927273 145.13719,283.927273 145.13719,283.927273 C145.560331,284.350413 146.406612,284.773554 147.252893,284.773554 L147.252893,284.773554 L194.644628,284.773554 C196.33719,284.773554 198.029752,283.504132 198.029752,281.38843 L198.029752,269.540496 C198.452893,267.847934 196.760331,266.578512 195.067769,266.578512" id="Path" fill="#7EC163" fill-rule="nonzero"></path>
    </g>
</svg>