<?xml version="1.0" encoding="UTF-8"?>
<svg width="512px" height="512px" viewBox="0 0 512 512" version="1.1" xmlns="http://www.w3.org/2000/svg" xmlns:xlink="http://www.w3.org/1999/xlink">
    <!-- Generator: Sketch 55.2 (78181) - https://sketchapp.com -->
    <title>svg/pelican</title>
    <desc>Created with Sketch.</desc>
    <g id="svg/pelican" stroke="none" stroke-width="1" fill="none" fill-rule="evenodd">
        <g id="shape">
            <circle id="Oval" fill="#004A9B" cx="256" cy="256" r="256"></circle>
            <path d="M112.326007,179.106227 L110.472527,166.423077 L111.399267,159.750916 L113.53124,154.184982 L113.53124,138.535714 L115.919414,125.64652 L120.655678,119.243132 L128.501884,115.061355 L128.501884,102.062271 L133.144689,94.4111722 L138.039377,92.224359 L143.260073,97.1978022 L143.260073,108.913919 L150.03663,138.535714 L153.947802,138.535714 L162.553114,131.971612 L173.9979,126.990842 L184.206044,126.990842 L200.388278,126.990842 L210.855311,130.751832 L212.649267,131.971612 L218.214286,121.06044 L227.532967,111.397436 L238.196886,105.877289 C241.981627,104.923323 244.760626,104.923323 246.533883,105.877289 C248.30714,106.831256 248.948471,108.671305 248.457875,111.397436 L246.533883,117.544872 L249.641941,121.06044 L246.533883,131.971612 L251.341575,138.535714 L248.457875,147.149267 L244.600733,153.28663 L242.608059,164.674908 L235.804029,170.813187 L235.804029,190.358974 L228.840201,207.015568 L218.214286,221.302198 L201.927656,238.461538 L201.927656,246.699634 L205.128205,252.312693 L196.537546,268.091575 L183.021676,283.720696 L170.250916,295.785697 L160.882784,301.897436 L159.466117,295.785697 L157.538462,282.257326 L153.787546,274.93315 L147.580586,273.162088 L140.342949,265.632784 L152.921245,250.211996 L166.744505,230.037546 L173.9979,213.40522 L172.604396,207.015568 L166.744505,203.453297 L159.466117,198.761905 L155.663004,194.595238 L123.744505,180.761905 L112.326007,179.106227 Z" id="Path-17" fill="#FFFFFF"></path>
            <path d="M48.0265568,176.636447 L67.9166667,173.947802 L96.0155678,175.292125 L123.099817,180.846154 L144.28663,188.90293 L162.999084,200.033883 C167.090821,201.882868 169.944606,203.721086 171.56044,205.548535 C173.176273,207.375984 173.963209,209.655288 173.921245,212.386447 C174.469454,214.814955 172.077208,221.090596 166.744505,231.21337 C161.411803,241.336144 156.691412,248.562029 152.583333,252.891026 C142.301755,264.508525 134.793513,272.192896 130.058608,275.944139 C122.95625,281.571004 119.401099,283.720696 111.957875,283.720696 C106.995726,283.720696 101.681624,283.720696 96.0155678,283.720696 C87.4099033,281.325402 80.3284015,278.246648 74.7710623,274.484432 C69.213723,270.722217 64.4570075,266.174598 60.5009158,260.841575 L53.6941392,252.891026 L45.0998168,248.038462 L39.5320513,245.022894 L57.9276557,231.21337 L73.4395604,223.352564 L98.6410256,215.787546 L111.957875,212.386447 L123.099817,209.194139 L140.644689,205.548535 C119.167691,210.352778 105.16647,213.765782 98.6410256,215.787546 C79.2922309,221.78234 74.684918,225.996839 73.4395604,226.487179 C71.5642014,227.225573 69.7232368,229.791202 67.9166667,234.184066 L73.4395604,238.431319 L83.6428571,239.863553 L98.6410256,238.431319 L113.669414,231.21337 C121.320914,226.027038 126.783979,222.41959 130.058608,220.391026 C134.970551,217.348179 136.73765,216.814388 143.472527,214.172161 C150.207405,211.529934 151.909058,211.383757 156.600733,210.429487 C159.728516,209.793307 163.109773,209.381525 166.744505,209.194139 L159.081502,205.548535 L140.644689,202.77381 L111.957875,195.371795 L81.3141026,187.174908 L57.9276557,180.846154 L48.0265568,176.636447 Z" id="Path" fill="#FAAB01"></path>
            <polygon id="Path-2" fill="#EA7A25" points="68.9679487 228.834249 47.7673993 243.454212 63.6987179 245.862637 83.481685 245.862637 93.5558608 241.278388 99.0238095 239.610806 83.481685 241.278388 73.3956044 239.610806 66.6373626 235.075092"></polygon>
            <polygon id="Path-3" fill="#000000" points="53.5998168 180.761905 76.4377289 190.620879 99.0238095 197.522894 112.326007 201.350733 111.957875 195.371795 93.8543956 191.056319 76.4377289 186.315018"></polygon>
            <path d="M140.342949,265.632784 L147.580586,273.162088 L137.258242,282.448718 L127.263736,288.096154 L117.471612,289.690476 L105.450549,290.886447 L92.5879121,288.096154 L81.4771062,282.448718 L73.3956044,275.43956 L69.168956,270.486722 L81.9171245,278.259615 L96.0155678,283.720696 L116.024267,283.720696 C118.376269,283.265937 120.432587,282.631017 122.193223,281.815934 C124.834177,280.59331 123.541818,281.185019 127.263736,278.259615 C129.745015,276.309346 131.724869,274.610171 133.203297,273.162088 L140.342949,265.632784 Z" id="Path-4" fill="#000000"></path>
            <ellipse id="Oval" fill="#000000" cx="175.355311" cy="190.358974" rx="6.56410256" ry="11.2527473"></ellipse>
            <ellipse id="Oval" fill="#000000" cx="150.03663" cy="190.358974" rx="6.56410256" ry="11.2527473"></ellipse>
            <path d="M271.813187,348.809524 L288.370879,341.089744 L304.181319,350.652015 L320.057692,356.35348 L330.415751,350.652015 L339.308608,347.132784 L351.745421,350.652015 L358.666667,353.06044 L377.042125,353.06044 C385.295405,353.101732 392.741376,354.199412 399.380037,356.35348 C406.018697,358.507548 411.366072,361.560967 415.422161,365.513736 L426.946886,378.772894 C428.842003,380.82334 430.469598,383.512595 431.82967,386.840659 C433.869779,391.832755 435.064619,395.469767 434.787546,397.958791 C434.60283,399.618141 433.616872,401.121193 431.82967,402.467949 L424.035714,404.717033 C424.18302,409.278832 423.683631,412.501054 422.537546,414.3837 C420.818418,417.207667 421.940647,417.028359 414.034799,417.45696 C406.12895,417.885561 406.768656,417.754779 397.431319,415.578755 C391.206427,414.128072 385.361189,412.464152 379.895604,410.586996 C373.713449,407.251161 367.514121,403.709037 361.297619,399.960623 C355.081118,396.212209 349.871105,392.692367 345.667582,389.401099 L327.96337,374.327839 C324.227513,373.227334 318.911884,371.39278 312.016484,368.824176 C305.121083,366.255571 298.990741,363.82639 293.625458,361.53663 L271.813187,348.809524 Z" id="Path-5" fill="#FAAB01"></path>
            <polygon id="Path-7" fill="#E79800" points="279.039377 346.442308 298.242674 357.486264 317.945971 365.031136 325.077839 366.248168 333.076007 373.436813 346.755495 383.498168 364.49359 394.901099 385.067766 402.564103 404.782051 405.820513 417.642857 405.820513 423.776557 405.820513 422.537546 414.3837 418.873626 417.652801 404.782051 417.652801 381.18315 409.740842 357.512821 397.782051 335.923077 382.047554 326.788462 373.436813 298.242674 363.365385 279.039377 352.924908 273.330586 349.783883"></polygon>
            <polygon id="Path-6" fill="#EA9800" points="333.076007 352.274725 340.333333 357.044872 340.333333 364.813187 375.336081 367.904762 399.483516 373.484432 416.068681 382.063187 429.290293 391.958791 419.290293 373.484432 407.989927 362.1337 396.081502 355.767399 375.336081 354.427656 358.666667 353.06044 340.333333 348.032051"></polygon>
            <path d="M205.430861,252.934982 C207.472933,251.085696 211.584707,253.701007 210.744963,256.29533 C209.90522,258.889652 209.893867,263.044086 199.038919,277.002747 C191.802288,286.308521 185.137911,293.238619 179.045788,297.79304 L162.46337,308.892857 C165.293213,314.781773 168.235521,319.833361 171.290293,324.047619 C174.345065,328.261877 177.310877,331.883672 180.187729,334.913004 L185.445971,339.2587 C169.787733,338.960014 161.221036,338.689104 159.745879,338.445971 C157.533144,338.081271 157.336081,336.357143 155.897436,334.315018 C154.458791,332.272894 155.600733,305.592949 155.897436,303.280678 C156.095238,301.739164 157.141026,300.507326 159.034799,299.585165 L160.882784,301.897436 C163.21448,301.997187 168.161824,298.57411 175.724817,291.628205 C187.069306,281.209348 189.875288,277.551872 195.787546,269.840659 C201.699803,262.129447 203.388788,254.784268 205.430861,252.934982 Z" id="Path-8" fill="#003079"></path>
            <rect id="Rectangle" fill="#E47422" x="153.787546" y="305.699634" width="3.75091575" height="3.75091575"></rect>
            <polygon id="Path-9" fill="#000000" points="160.194139 341.089744 187.419414 341.089744 205.374542 350.466117 224.351648 355.471612 251.57326 355.471612 269.740842 350.466117 294.60348 362.806777 326.788462 373.436813 333.076007 379.371272 312.015568 374.917582 293.06044 362.806777 275.101648 355.471612 255.703297 360.230508 230.994505 360.230508 212.326007 355.471612 196.496337 348.032051 175.917582 348.032051 167.672161 348.032051 162.658425 346.442308"></polygon>
            <polygon id="Path-10" fill="#000000" points="143.260073 99.9505495 143.260073 108.913919 146.143315 123.788919 151.313645 138.535714 153.947802 138.535714 152.797161 131.024267 150.003663 112.034341 146.143315 100.633242"></polygon>
            <path d="M207.70696,252.312693 L201.927656,246.699634 L201.927656,238.461538 L210.856496,228.834249 L222.983516,217.135531 L231.734432,204.257326 L236.194139,191.717949 L237.761905,179.106227 L237.761905,170.558608 L244.600733,163.455128 L244.600733,153.28663 L250.065018,145.549451 L251.588828,136.744505 L247.179487,130.70696 L250.065018,125.21337 L250.065018,119.243132 C252.269908,121.327965 253.623082,122.875736 254.124542,123.886447 C254.626002,124.897158 255.168737,127.170662 255.752747,130.70696 L254.124542,136.744505 L255.752747,141.895604 L255.752747,147.978022 C255.588129,149.926715 255.045394,151.696251 254.124542,153.28663 C253.20369,154.877009 252.358452,155.504603 251.588828,155.169414 L251.588828,166.436813 L250.065018,170.558608 L244.600733,173.947802 L243.046703,179.106227 L239.446886,193.694139 L239.446886,197.101648 L239.446886,201.611722 C234.434168,211.325601 229.589541,219.621999 224.913004,226.500916 C220.236467,233.379832 216.461742,237.762005 213.588828,239.647436 L207.70696,244.968864 L207.70696,252.312693 Z" id="Path-11" fill="#000000"></path>
            <path d="M288.370879,341.089744 L290.431074,339.901392 L348.553571,306.375458 C359.293769,300.719754 365.659001,297.071403 367.649267,295.430403 C369.639534,293.789403 370.873051,291.172492 371.349817,287.57967 L369.782051,283.262821 C374.176438,287.014812 376.480773,290.570063 376.695055,293.928571 C377.016478,298.966334 377.143184,298.800368 371.349817,303.891941 C367.487572,307.286323 363.494593,309.634614 359.370879,310.936813 L330.016484,328.055861 L309.431319,339.2587 L297.734432,346.442308" id="Path-12" fill="#000000"></path>
            <polygon id="Path-13" fill="#000000" points="371.040293 149.315934 371.040293 165.283883 361.779304 182.503663 350.050366 194.207875 360.54533 197.367216 373.200549 182.503663 378.217033 170.392857 378.217033 154.20696 371.040293 147.570513"></polygon>
            <polygon id="Path-14" fill="#000000" points="362.70696 201.904762 369.203297 209.864469 367.917582 221.70696 360.046703 233.93315 341.274725 250.260989 346.977106 261.685897 337.968864 263.03022 337.968864 250.260989 332.594868 244.28663 350.899082 229.667582 360.046703 217.867216"></polygon>
            <polygon id="Path-15" fill="#EA9900" points="51.5082418 247.927656 73.3956044 250.144689 82.9629121 250.144689 97.0503663 244.172161 112.326007 235.605311 94.9981685 254.124542 91.9450549 267.876374 100.836081 275.944139 110.037546 279.893773 94.9981685 279.893773 74.6575092 270.195055 64.2710623 257.749542"></polygon>
            <path d="M115.358059,210.542125 C114.572205,208.711444 114.03527,206.528599 113.747253,203.99359 C113.459236,201.45858 113.459236,198.91554 113.747253,196.364469 L143.472527,203.99359 L115.358059,210.542125 Z" id="Path-16" fill="#FFFFFF"></path>
            <path d="M163.452381,307.575092 L178.470696,299.06685 L197.091575,278.667125 L207.299451,266.447802 L213.033883,254.124542 L221.92033,257.17033 L240.465201,232.467491 L264.996337,203.453297 L304.953297,167.434066 L337.083333,145.558608 L352.682234,140.391026 L364.1337,141.826923 L371.040293,149.315934 L371.040293,161.903846 L364.1337,178.467033 L350.050366,194.207875 L358.563187,197.367216 L362.214286,203.453297 L358.563187,218.668498 L341.301282,237.590659 L332.594868,244.28663 L337.083333,251.040293 L337.083333,263.03022 L355.246337,263.03022 L364.1337,271.195971 L364.1337,278.667125 L369.782051,283.262821 L371.040293,289.968864 L366.080586,295.785697 L286.531136,341.089744 L264.996337,350.466117 L243.251832,354.75 C235.446164,355.231442 229.523087,355.231442 225.482601,354.75 C221.442114,354.268558 215.381064,352.840597 207.299451,350.466117 C200.906343,347.649009 195.968309,345.175871 192.485348,343.046703 C189.002387,340.917536 183.718504,336.621748 176.6337,330.159341 C173.44151,326.033935 171.147554,322.874899 169.751832,320.682234 C168.356109,318.489569 166.775829,315.562219 165.010989,311.900183 L163.452381,307.575092 Z" id="Path-18" fill="#FFFFFF"></path>
            <path d="M72.1300366,226.296245 L84.4148352,220.707875 L104.764652,213.541667 L128.501884,207.441392 L144.349817,203.453297 L150.03663,204.267399 L159.081502,205.548535 L166.744505,209.194139 C154.119531,212.131524 145.881131,214.213636 142.029304,215.440476 C138.177477,216.667316 134.655378,218.331026 131.463005,220.431604 L117.330586,228.834249 C115.134444,230.260443 112.848425,231.583551 110.472527,232.803571 C108.09663,234.023592 104.152796,235.899508 98.6410256,238.431319 L83.6428571,239.863553 L73.4395604,238.431319 L67.9166667,234.184066 L69.6149267,229.961996 L72.1300366,226.296245 Z" id="Path-19" fill="#D33307"></path>
        </g>
    </g>
</svg>