<?xml version="1.0" encoding="UTF-8"?>
<svg width="512px" height="512px" viewBox="0 0 512 512" version="1.1" xmlns="http://www.w3.org/2000/svg" xmlns:xlink="http://www.w3.org/1999/xlink">
    <!-- Generator: Sketch 55.2 (78181) - https://sketchapp.com -->
    <title>svg/seven-eleven</title>
    <desc>Created with Sketch.</desc>
    <g id="svg/seven-eleven" stroke="none" stroke-width="1" fill="none" fill-rule="evenodd">
        <path d="M0,-2.55795385e-12 L0,512 L512,512 L512,-2.55795385e-12 L0,-2.55795385e-12 Z M422.144,450.6224 C422.144,462.3216 414.7456,471.8192 405.6576,471.8192 L315.6736,471.8448 L315.6736,471.8448 L315.6736,491.7616 L192.8704,491.7616 L192.8704,471.8192 L99.9424,471.8192 C90.8544,471.8192 83.456,462.3216 83.456,450.6224 L44.5952,57.3552 C44.5952,45.656 53.6832,36.1584 64.8704,36.1584 L440.3712,36.1584 C451.5072,36.1584 460.5696,45.656 460.5696,57.3552 L422.144,450.6224 Z" id="Shape" fill="#008061" fill-rule="nonzero"></path>
        <path d="M313.344,364.7856 L206.0544,364.7856 C202.4704,399.0384 200.6272,440.7664 200.6272,484.568 L309.5808,484.568 C309.6064,440.7664 309.76,399.0384 313.344,364.7856 L313.344,364.7856 Z" id="Path" fill="#ED1B2D" fill-rule="nonzero"></path>
        <path d="M370.6112,290.392 C386.2784,279.1792 404.1984,284.2992 404.224,297.048 L404.224,357.08 L382.6176,357.08 L382.6176,306.0336 C382.6176,301.6048 371.6352,299.5312 370.4576,307.2624 L370.4576,357.0544 L348.928,357.0544 L348.928,286.2448 L370.4576,286.2448 L370.4576,307.0576 L370.6112,290.392 Z M339.4816,302.0144 L322.048,302.0144 L322.048,315.2752 L339.4816,315.2752 L339.4816,328.5616 L322.048,328.5616 L322.048,341.848 L339.4816,341.848 L339.4816,357.0544 L299.648,357.0544 L299.648,286.2448 L339.4816,286.2448 L339.4816,302.0144 Z M278.272,286.2448 L294.8864,286.2448 L281.4208,357.0544 L252.6208,357.0544 L241.5104,286.2448 L261.0432,286.2448 L269.5424,334.1168 L278.272,286.2448 Z M237.3888,302.0144 L220.0576,302.0144 L220.0576,315.2752 L237.3888,315.2752 L237.3888,328.5616 L220.0576,328.5616 L220.0576,341.848 L237.3888,341.848 L237.3888,357.0544 L197.632,357.0544 L197.632,286.2448 L237.3888,286.2448 L237.3888,302.0144 Z M174.6432,341.848 L192.0768,341.848 L192.0768,357.0544 L152.2432,357.0544 L152.2432,286.2448 L174.6432,286.2448 L174.6432,341.848 Z M144.768,302.0144 L127.3344,302.0144 L127.3344,315.2752 L144.768,315.2752 L144.768,328.5616 L127.3344,328.5616 L127.3344,341.848 L144.768,341.848 L144.768,357.0544 L104.9344,357.0544 L104.9344,286.2448 L144.768,286.2448 L144.768,302.0144 Z" id="Combined-Shape" fill="#008061" fill-rule="nonzero"></path>
        <path d="M221.5936,276.0304 L323.456,276.2864 L323.456,276.2864 C325.6576,249.176 362.7776,204.9392 398.72,193.3168 L398.72,88.7408 C299.8016,133.0032 235.4944,199.9472 221.5936,276.0304 Z" id="Path" fill="#ED1B2D" fill-rule="nonzero"></path>
        <path d="M112.9984,93.7328 L113.2288,188.3248 L245.4784,188.3248 C264.2944,154.0208 339.6352,103 364.3904,93.7328 L112.9984,93.7328 Z" id="Path" fill="#F5821F" fill-rule="nonzero"></path>
    </g>
</svg>