<?xml version="1.0" encoding="UTF-8"?>
<svg width="512px" height="512px" viewBox="0 0 512 512" version="1.1" xmlns="http://www.w3.org/2000/svg" xmlns:xlink="http://www.w3.org/1999/xlink">
    <!-- Generator: Sketch 55.2 (78181) - https://sketchapp.com -->
    <title>svg/smilepay</title>
    <desc>Created with Sketch.</desc>
    <g id="svg/smilepay" stroke="none" stroke-width="1" fill="none" fill-rule="evenodd">
        <g id="Shape" fill-rule="nonzero">
            <path d="M90.795814,0 L421.204186,0 C470.971325,0 511.31556,40.3442365 511.31556,90.1113744 L511.31556,420.519746 C511.31556,470.286885 470.971325,510.63112 421.204186,510.63112 L90.795814,510.63112 C41.0286762,510.63112 0.684439703,470.286885 0.684439703,420.519746 L0.684439703,90.1113744 C0.684439703,40.3442365 41.0286762,0 90.795814,0 Z" id="Rectangle" fill="#FF6600"></path>
            <path d="M62.3866779,260.321748 C97.4620771,308.689766 127.526905,343.866707 152.581163,365.852571 C190.162549,398.831366 224.349553,412.746468 246.52051,421.95218 C268.691468,431.157895 300.977312,447.521905 368.443663,449.574211 C413.421232,450.942414 461.045198,441.735071 511.31556,421.95218 L511.31556,510.63112 L219.744939,510.63112 C199.309153,494.130503 184.491975,481.145704 173.036132,469.85807 C155.852366,452.926619 152.094328,453.847782 126.59201,414.907341 C109.590465,388.947046 96.0939656,363.01656 86.1025131,337.115881 L62.3866779,260.321748 Z" id="Path-2" fill="#FFFFFF"></path>
            <path d="M45.7401269,260.321804 C33.2928322,260.321804 9.89638273,257.862654 0.684439703,247.762905 C0.684439703,240.944838 -0.408090456,135.653208 0.684439703,88.9800101 C0.980301985,76.3406896 2.36968623,72.6356275 2.9729251,69.5541498 C12.8341635,60.954212 34.225721,60.0727544 45.7401269,60.0727544 C98.2721055,60.0727544 140.857689,104.901179 140.857689,160.197999 C140.857689,215.494818 98.2721055,260.321804 45.7401269,260.321804 Z" id="Oval" fill="#FFFFFF"></path>
        </g>
    </g>
</svg>