<?xml version="1.0" encoding="UTF-8"?>
<svg width="512px" height="512px" viewBox="0 0 512 512" version="1.1" xmlns="http://www.w3.org/2000/svg" xmlns:xlink="http://www.w3.org/1999/xlink">
    <!-- Generator: Sketch 55.2 (78181) - https://sketchapp.com -->
    <title>svg/black-cat</title>
    <desc>Created with Sketch.</desc>
    <g id="svg/black-cat" stroke="none" stroke-width="1" fill="none" fill-rule="evenodd">
        <circle id="Oval" fill="#FBC607" cx="256" cy="256" r="256"></circle>
        <polygon id="Path-8" fill="#231F20" fill-rule="nonzero" points="198.441113 347.869365 230.999268 315.330472 243.391863 378.487161 222.266457 386.746781"></polygon>
        <path d="M90.6700939,268.78396 C93.7727586,271.522881 97.4314249,273.853836 101.646093,275.776824 C105.860761,277.699813 110.478753,279.145174 115.500066,280.112908 C121.356944,280.705804 126.100218,280.705804 129.729886,280.112908 C135.17439,279.223565 140.421801,277.907431 147.783787,273.852146 C155.145774,269.796861 155.938558,268.664521 161.429891,262.651241 C165.090779,258.642388 168.418455,253.751 171.412922,247.977076 C177.781183,247.673843 183.260292,246.350185 187.850245,244.006106 C194.735177,240.489984 193.463675,241.339302 199.505366,236.7676 C205.547056,232.195898 204.700425,232.195898 209.854152,226.930713 C213.289969,223.42059 216.568461,217.88291 219.689631,210.317672 L350.83881,210.317672 L460.383483,164.806867 L467.049251,181.898331 L366.861357,248.705695 L401.377815,369.390121 L384.461309,381.383398 L329.840369,325.127075 L283.422231,386.746781 L264.395788,375.743568 L283.422231,305.248109 L234.799473,305.248109 L151.359867,386.746781 L129.729886,370.89504 L146.585834,342.292472 L109.882058,363.955483 L103.867054,355.939071 L106.986782,348.346972 L100.512302,351.126438 L94.448756,343.586306 L110.936545,323.830562 L110.936545,303.84016 L92.5675956,297.524751 L91.3444088,287.912878 L101.646093,285.132877 L82.2269807,281.002252 L82.2269807,271.584856 L90.6700939,268.78396 Z M159.297377,276.550698 L159.297377,320.936695 L172.693523,302.107296 L159.297377,276.550698 Z" id="Combined-Shape" fill="#231F20" fill-rule="nonzero"></path>
        <path d="M65.7815846,195.570815 L101.618361,223.162213 L142.895501,221.94203 L176.418078,205.385007 C176.679105,209.840177 176.406941,214.250366 175.601586,218.615574 C174.393553,225.163386 174.117931,227.750777 170.67741,236.500728 C167.236889,245.250678 164.892062,249.735035 161.583815,254.265642 C158.275569,258.796248 156.781909,260.016273 153.561101,262.752379 C150.340293,265.488485 145.945101,267.842074 142.895501,269.702729 C140.862435,270.943165 136.541932,272.399571 129.933993,274.071947 C124.60335,274.880166 119.620161,274.880166 114.984427,274.071947 C110.348694,273.263728 102.01123,270.184082 98.7363281,268.164551 C97.2618086,267.25526 91.1486305,262.396097 88.7177734,259.811523 C85.749706,256.655769 82.5905124,252.574454 81.0761719,250.158203 C76.944286,243.56545 78.2384743,245.089832 75.0116216,238.366303 C72.8603866,233.88395 70.8576306,228.11034 69.0033537,221.045471 L65.7815846,195.570815 Z M86.25,241.466724 C86.25,242.438397 86.3860038,243.175308 86.9842346,243.796721 C87.3830552,244.210997 87.9392621,244.598872 88.6528553,244.960348 C88.9221595,245.074705 89.3189133,245.131883 89.8431169,245.131883 C90.6294223,245.131883 91.7408258,244.648158 93.41625,244.683149 C95.0916743,244.718139 96.5061273,244.830201 98.3376574,245.131883 C100.169187,245.433566 100.165897,245.535947 102.591973,246.123784 C105.01805,246.71162 105.968612,247.40678 106.606358,247.956609 C107.244104,248.506438 107.437063,248.506438 108.532571,248.506438 C109.26291,248.506438 109.875859,248.323162 110.371417,247.956609 C111.550093,246.938182 112.13943,246.236998 112.13943,245.853058 C112.13943,245.277146 112.718246,244.190619 111.227241,242.764269 C109.736235,241.33792 109.3613,240.951944 106.211045,239.716223 C104.110874,238.89241 102.044122,238.313579 100.010787,237.979732 C98.2265939,237.664203 96.1986088,237.506438 93.9268319,237.506438 C91.6550549,237.506438 90.0271429,237.664203 89.0430958,237.979732 C88.2681726,238.378138 87.6746388,238.812531 87.2624946,239.28291 C86.6442784,239.988478 86.25,240.495052 86.25,241.466724 Z M154.014979,242.209236 C154.014979,241.217994 153.940981,240.566402 153.272527,239.846623 C152.826891,239.366771 152.225485,238.915731 151.46831,238.493505 C150.097375,237.901268 148.183714,237.60515 145.727327,237.60515 C143.270939,237.60515 141.215831,237.766351 139.562002,238.088754 C137.003731,238.83291 134.589177,239.625191 132.318342,240.465597 C128.912088,241.726206 128.829849,241.632467 127.217681,243.087544 C126.142902,244.057595 125.78847,245.317036 126.154384,246.865867 L127.217681,248.385404 C127.75351,248.759358 129.183429,249.60515 129.973117,249.60515 C131.157648,249.60515 131.443566,249.481016 132.055859,249.044219 C132.668151,248.607422 133.751566,248.019135 136.396463,247.174479 C139.04136,246.329824 139.016131,246.47036 140.996496,246.162602 C142.97686,245.854844 144.506256,245.740525 146.317829,245.70483 C148.129403,245.669135 149.331122,246.162602 150.181324,246.162602 C150.748126,246.162602 151.177121,246.104272 151.46831,245.987611 C152.163567,245.89245 152.764973,245.496762 153.272527,244.800549 C154.033858,243.75623 154.014979,243.200478 154.014979,242.209236 Z" id="Combined-Shape" fill="#231F20" fill-rule="nonzero"></path>
        <path d="M71.2633833,113.811433 L116.326371,152.322317 L178.306896,151.44932 L232.428266,112.06867 C233.029501,120.719894 233.029501,129.56791 232.428266,138.612718 C231.526412,152.179929 230.34668,158.033691 228.668457,165.841797 C226.990234,173.649902 221.154004,194.301437 218.379883,201.422363 C215.605762,208.54329 213.829102,211.435547 206.853027,221.05223 C199.876953,230.668914 195.018975,233.418427 190.785759,236.074016 C187.963615,237.844407 182.677243,239.725315 174.926645,241.716738 C177.678119,234.918596 179.650651,228.030427 180.844239,221.05223 C182.037827,214.074035 182.634886,205.939342 182.635417,196.648154 L139.896173,216.691553 L104.068771,216.691553 C97.3398501,211.601896 92.0635361,205.920601 88.2398288,199.647667 C84.4161215,193.374734 81.4415199,185.520096 79.316024,176.083756 C76.8442917,167.193244 75.0187902,158.188246 73.8395195,149.068763 C72.6602489,139.94928 71.8015368,128.196836 71.2633833,113.811433 Z M101.727477,180.44495 L102.540674,183.491368 C103.055251,184.070675 103.772894,184.613065 104.693604,185.118538 C105.041073,185.278451 105.552983,185.358407 106.229334,185.358407 C107.243861,185.358407 108.677844,184.681985 110.839552,184.730914 C113.00126,184.779843 114.826251,184.936546 117.189374,185.358407 C119.552497,185.780268 119.548252,185.923434 122.678485,186.745442 C125.808719,187.567449 127.035178,188.539535 127.858026,189.308394 C128.680875,190.077253 128.92984,190.077253 130.343314,190.077253 C131.28563,190.077253 132.076484,189.820967 132.715876,189.308394 C134.236656,187.884265 134.997046,186.903757 134.997046,186.366869 C134.997046,185.561537 135.743861,184.042179 133.820098,182.047627 C131.896336,180.053075 131.412577,179.513342 127.347975,177.785358 C124.63824,176.633368 121.971623,175.823954 119.348122,175.357115 C117.046075,174.915891 114.429477,174.695279 111.498328,174.695279 C108.567178,174.695279 106.466772,174.915891 105.19711,175.357115 C104.197269,175.914231 103.431465,176.521669 102.899698,177.179429 C102.102047,178.166068 101.727477,179.086201 101.727477,180.44495 Z M193.119757,181.525094 C193.119757,180.163731 193.103826,178.762235 192.279983,177.773697 C191.730754,177.114672 190.989544,176.495219 190.056356,175.915337 C188.366733,175.101965 186.008222,174.695279 182.980821,174.695279 C179.95342,174.695279 177.42058,174.916671 175.382301,175.359455 C172.229332,176.381473 169.25349,177.469584 166.454774,178.62379 C162.256701,180.355098 162.25404,180.845989 160.267106,182.844378 C158.942483,184.176637 158.472761,185.699798 158.85794,187.413859 L161.113906,190.405588 C161.774294,190.919173 162.591118,191.175966 163.564377,191.175966 C165.024266,191.175966 165.376648,191.005481 166.131275,190.405588 C166.885901,189.805695 168.221167,188.997747 171.480898,187.837705 C174.74063,186.677664 174.709536,186.870675 177.150257,186.448003 C179.590979,186.02533 181.475898,185.868325 183.708592,185.819302 C185.941285,185.770279 187.422356,186.448003 188.470197,186.448003 C189.168758,186.448003 189.697478,186.367893 190.056356,186.207672 C190.913233,186.076978 191.654442,185.533545 192.279983,184.577372 L193.119757,181.525094 Z" id="Combined-Shape" fill="#231F20" fill-rule="nonzero"></path>
        <path d="M37.4518201,124.39485 C33.8955195,129.939031 29.7616865,137.333524 25.0503212,146.578327 C20.3389558,155.823129 16.5698624,165.195446 13.7430407,174.695279 C9.62966007,189.884163 6.83363998,200.735248 5.35498047,207.248535 C3.13699121,217.018466 3.13051068,221.584961 2.38574219,226.95166 C1.88922986,230.52946 1.0939439,240.21224 -0.000115675592,256 C0.314711083,268.643146 1.10999704,279.922768 2.38574219,289.838867 C3.66148734,299.754966 5.56645408,309.463541 8.1006424,318.964592 C12.959643,335.219143 18.1191294,349.57795 23.5791016,362.041016 C29.0390737,374.504081 35.3956473,386.432111 42.6488222,397.825108 C53.2529846,411.658302 62.7443928,423.100502 71.1230469,432.151706 C83.691028,445.728512 85.3733717,447.190969 99.5322266,458.549805 C108.971463,466.122362 119.057794,473.011697 129.79122,479.217811 C140.283503,484.822488 152.028552,490.048167 165.026367,494.89485 C184.52309,502.164874 186.554401,502.811455 203.687366,506.772533 C215.109342,509.413251 226.884146,511.15574 239.011778,512 L274.638116,512 C285.436711,510.429224 297.354247,508.107284 310.390723,505.03418 C323.427198,501.961076 335.697029,498.581299 347.200214,494.89485 C365.825853,487.198674 378.711589,480.991536 385.857422,476.273437 C393.003255,471.555339 405.877334,462.166267 424.479657,448.106224 C435.256779,438.138502 444.987193,427.854373 453.670898,417.253839 C462.354604,406.653304 469.869373,395.885572 476.215204,384.950643 C485.961019,365.5254 493.16793,349.495953 497.835938,336.862305 C502.503945,324.228656 505.876263,311.626128 507.952891,299.054721 C509.393203,291.21264 510.376786,281.925444 510.90364,271.193133 C511.430494,260.460822 511.430494,249.711895 510.90364,238.946352 C509.484907,223.800121 507.671559,211.084456 505.463597,200.799356 C503.991623,193.942622 502.559075,188.182966 501.165953,183.520387 L471.940767,202.798703 C475.083593,211.662856 477.247882,218.626603 478.433633,223.689946 C481.101572,235.082465 481.836838,240.729032 482.198574,246.601157 C482.560311,252.473281 482.852226,268.436523 482.198574,273.905273 C481.544922,279.374023 478.433633,290.315622 476.619654,295.395855 C474.805676,300.476087 472.228505,309.093543 465.307705,322.430698 C458.386905,335.767852 457.68095,337.275998 448.976546,348.66721 C440.272144,360.058422 439.32706,360.89485 428.470563,370.638451 C417.614064,380.382059 415.424636,381.287899 403.965263,389.064422 C392.505891,396.840945 394.841441,396.338774 379.526316,403.852841 C364.211192,411.366907 363.611828,411.668314 346.509766,417.253839 C329.407704,422.839362 329.164425,422.688741 310.390723,426.432487 C297.874922,428.928318 285.011906,430.834723 271.801673,432.151706 C260.655869,433.139703 248.47742,433.139703 235.266325,432.151706 C227.23856,431.551345 209.305004,429.70348 195.32669,426.432487 C171.829692,420.934075 169.335036,419.802735 150.300424,412.478882 C131.265812,405.155028 131.336864,405.181328 114.926237,395.497202 C98.5156093,385.813074 98.2447526,385.129637 85.4530978,374.211622 C72.6614428,363.293607 73.103771,363.536971 62.9726056,351.153407 C52.8414402,338.769844 52.913,338.551704 45.6590094,325.570366 C38.4050187,312.589029 37.5829673,310.040939 33.881526,299.09363 C30.1800848,288.146322 30.7748935,287.416345 29.2026384,276.899333 C27.6303834,266.382322 27.4089936,266.864083 27.4089936,255.798046 C27.4089936,244.732009 28.0815464,240.657882 29.2026384,233.664778 C30.3237305,226.671674 32.1733398,219.859863 33.881526,213.799882 C35.5897121,207.739901 37.6496582,201.830048 42.6488222,192.657726 C45.9815983,186.542843 46.5062533,184.740966 51.3683083,178.917381 C47.5621091,167.249285 44.6556137,157.469242 42.6488222,149.577253 C40.6420309,141.685264 38.9096968,133.29113 37.4518201,124.39485 Z" id="Path-23" fill="#231F20" fill-rule="nonzero"></path>
        <path d="M124.491435,112.06867 C132.102591,106.767823 138.536133,103.854004 141.377889,102.611176 C158.240964,95.2361953 163.864746,93.5258789 179.785459,89.1622425 C195.706173,84.7986061 211.142578,82.0487209 216.820312,81.1698683 C222.498047,80.2910156 236.167062,78.7158203 256,78.7158203 C275.832939,78.7158203 275.327593,79.3060242 288.997493,81.1698683 C302.667392,83.0337123 312.98672,84.5268618 330.112235,89.1622425 C347.237748,93.7976233 352.438442,95.5201139 368.212865,102.611176 C383.987287,109.702238 391.030553,112.793978 406.506089,123.503504 C413.384105,128.263293 424.690427,137.428077 440.425053,150.997854 L480.705568,136.036481 C477.469397,128.652428 471.917648,119.566948 464.050321,108.780043 C456.182995,97.9931376 447.3154,87.3082305 437.447537,76.7253218 C427.409866,66.6593513 417.09605,57.733658 406.506089,49.9482422 C395.916128,42.1628263 384.153927,34.8589058 371.219486,28.0364807 C356.67464,21.3677156 343.774329,16.221278 332.518555,12.597168 C315.634893,7.16100286 308.033822,5.46475609 294.058594,3.19238281 C284.741775,1.67746729 273.28684,0.613339688 259.693791,-9.9475983e-14 L238.369379,-9.9475983e-14 C229.974059,0.041649135 217.96014,1.93292238 202.327623,5.67381974 C178.878848,11.2851658 167.470065,16.0211931 158.78418,19.0449219 C150.098295,22.0686506 134.363714,29.7397516 118.433592,40.2403433 C102.503472,50.7409351 90.922824,59.9726947 83.6916488,67.9356223 L124.491435,112.06867 Z" id="Path-22" fill="#231F20" fill-rule="nonzero"></path>
    </g>
</svg>