<?xml version="1.0" encoding="UTF-8"?>
<svg width="508px" height="512px" viewBox="0 0 508 512" version="1.1" xmlns="http://www.w3.org/2000/svg" xmlns:xlink="http://www.w3.org/1999/xlink">
    <!-- Generator: Sketch 55.2 (78181) - https://sketchapp.com -->
    <title>svg/ok-mart</title>
    <desc>Created with Sketch.</desc>
    <g id="svg/ok-mart" stroke="none" stroke-width="1" fill="none" fill-rule="evenodd">
        <path d="M197.149575,147.403278 C167.673113,128.340809 135.714693,122.941909 101.376662,131.180989 C67.0386307,139.445657 40.6838081,158.201079 22.3889555,187.703128 C3.71029487,217.563398 -1.68860568,249.521819 6.16666668,283.476042 C14.4057471,317.788486 33.1867566,344.348006 62.6888056,363.026666 C92.5490755,381.321519 124.712194,386.541309 159.024638,378.66045 C193.055622,371.163398 219.333683,352.305627 238.012344,322.061549 C256.691005,292.585087 261.910795,260.703428 253.646127,226.390984 C246.149075,192.334413 227.393653,166.081939 197.149575,147.403278 Z M116.447526,195.558401 C132.465117,191.490035 147.843029,193.844058 162.427736,202.850754 C176.551874,211.755102 185.763268,224.471944 189.831634,240.873343 C193.157971,257.274742 190.59925,272.831764 181.950775,287.33971 C173.404648,301.566197 160.713393,310.752004 143.928186,314.845957 C127.526787,318.172294 111.969765,315.613573 97.4618191,306.965097 C82.8515243,297.190784 73.8448276,284.49953 70.544078,268.84016 C66.4757122,252.43876 69.0344328,236.984088 78.4249375,222.373793 C87.0478261,207.891434 99.6623189,198.884737 116.447526,195.558401 Z M304.103454,94.7864889 C294.329141,89.9505069 284.861875,88.7990826 275.573719,91.3833905 C265.057377,93.6606518 257.278866,99.4433605 252.059076,108.731516 C246.07167,117.738213 244.562025,127.793985 247.606902,138.975594 L286.755328,309.28404 C289.697857,321.514725 296.043484,330.521421 305.817797,336.12502 C315.105953,340.961002 324.598807,342.291536 334.347532,340.014275 C345.529141,337.071746 353.589111,331.109927 358.425093,322.103231 C363.644883,313.198883 365.154529,303.143111 362.877267,291.859153 L351.13274,241.78499 L360.983814,230.117224 L439.024794,298.000082 C449.541135,307.390587 461.106553,310.512226 473.823394,307.569697 C482.727742,305.292436 490.429491,299.893535 496.775118,291.347408 C504.27217,281.189288 506.267972,270.570597 502.941635,259.388988 C501.43199,251.149907 497.158926,243.934315 490.045683,237.588688 L411.620895,169.782591 L445.19131,129.482741 C454.198007,119.32462 457.140536,107.580092 454.198007,94.2235704 C451.920746,83.4257693 445.754229,74.5981831 435.698457,67.8687478 C425.924144,61.8813415 416.25218,60.2693475 406.580216,62.8536553 C399.083164,64.3633005 392.353729,68.636364 386.39191,75.7496074 L328.641585,144.579193 L323.140336,121.627468 C320.504853,109.652656 314.159226,100.748308 304.103454,94.7864889 Z M9.00669665,387.567126 C3.04487756,387.567126 -2.84217094e-13,390.612003 -2.84217094e-13,396.573822 L-2.84217094e-13,461.514152 C-2.84217094e-13,475.254482 5.2197901,487.024597 15.6337831,496.79891 C25.791904,506.854682 38.0993503,511.869774 52.6072964,511.869774 L454.735832,511.869774 C469.243778,511.869774 481.755922,506.854682 492.195502,496.79891 C502.353623,487.024597 507.368716,475.280069 507.368716,461.514152 L507.368716,326.029894 C507.368716,320.068075 504.323838,317.023198 498.362019,317.023198 L490.02059,321.475372 L481.013893,327.641888 C429.916242,362.824297 370.553923,388.232393 302.952524,403.866176 C249.577611,416.480669 198.070565,421.87957 148.405797,420.088465 C100.992704,418.195012 61.0766617,409.930344 28.5553223,395.422398 C16.2222889,390.228195 9.67196402,387.567126 9.00669665,387.567126 Z M507.394303,50.4982382 C507.010495,37.4231757 501.790705,25.8321712 491.76052,15.8019863 C481.218591,5.36240608 468.885557,0.14261598 454.761419,0.14261598 L52.6328836,0.14261598 C38.1249375,0.14261598 25.791904,4.97859799 15.6593703,14.650562 C5.2197901,24.8086829 0,36.7323211 0,50.4982382 L0,131.200287 C0,136.803885 3.04487756,139.541716 9.00669665,139.541716 C14.6102949,139.541716 22.567916,135.831572 33.0074963,128.360107 C80.5229385,94.0476635 140.243478,68.4348699 212.22029,51.6496625 C313.775912,27.7512117 402.333233,29.2608569 477.713143,56.1018364 L493.346927,63.3941902 C496.673263,64.9038354 499.513443,65.108533 501.790705,63.9571087 C505.884658,62.4474636 507.778111,57.9952896 507.394303,50.4982382 Z" id="Combined-Shape" fill="#FF0000" fill-rule="nonzero"></path>
    </g>
</svg>