<?xml version="1.0" encoding="UTF-8"?>
<svg width="512px" height="512px" viewBox="0 0 512 512" version="1.1" xmlns="http://www.w3.org/2000/svg" xmlns:xlink="http://www.w3.org/1999/xlink">
    <!-- Generator: Sketch 55.2 (78181) - https://sketchapp.com -->
    <title>svg/china-flag</title>
    <desc>Created with Sketch.</desc>
    <g id="svg/china-flag" stroke="none" stroke-width="1" fill="none" fill-rule="evenodd">
        <g id="Group" transform="translate(0.000000, 77.000000)" fill-rule="nonzero">
            <path d="M503.171017,358 L8.82798276,358 C3.95299228,358 0,353.781254 0,348.578526 L0,9.42147391 C0,4.21874562 3.95299228,0 8.82798276,0 L503.172017,0 C508.047008,0 512,4.21874562 512,9.42147391 L512,348.578526 C512,353.782322 508.046008,358 503.171017,358 Z" id="Path" fill="#FF4B55"></path>
            <path d="M90.6741333,55.9541333 L99.6512,82.8704 L128.024533,83.0901333 C131.698133,83.1178667 133.221333,87.8069333 130.2656,89.9882667 L107.441067,106.842667 L115.998933,133.895467 C117.106133,137.3984 113.118933,140.2944 110.130133,138.158933 L87.0474667,121.658667 L63.9648,138.157867 C60.976,140.2944 56.9888,137.396267 58.096,133.8944 L66.6538667,106.8416 L43.8293333,89.9882667 C40.8736,87.8058667 42.3968,83.1178667 46.0704,83.0901333 L74.4437333,82.8704 L83.4208,55.9541333 C84.5834667,52.4682667 89.5125333,52.4682667 90.6741333,55.9541333 Z" id="Path" fill="#FFE15A"></path>
            <path d="M193.7056,62.5866667 L200.142933,71.3653333 L210.5312,68.1162667 C211.876267,67.696 212.9824,69.2298667 212.158933,70.3722667 L205.799467,79.2053333 L212.0992,88.0810667 C212.9152,89.2298667 211.7984,90.7562667 210.456533,90.3264 L200.0896,87.008 L193.594667,95.7429333 C192.754133,96.8736 190.9568,96.2826667 190.951467,94.8746667 L190.903467,83.9893333 L180.5888,80.5109333 C179.2544,80.0597333 179.259733,78.1696 180.5984,77.728 L190.9344,74.3189333 L191.056,63.4346667 C191.070933,62.0277333 192.872533,61.4506667 193.7056,62.5866667 Z" id="Path" fill="#FFE15A"></path>
            <path d="M154.514133,36.4213333 L165.335467,37.5968 L169.952,27.7397333 C170.5504,26.464 172.427733,26.6826667 172.715733,28.0618667 L174.9408,38.7157333 L185.741867,40.0597333 C187.140267,40.2336 187.512533,42.0874667 186.289067,42.7882667 L176.843733,48.1962667 L178.903467,58.8842667 C179.170133,60.2688 177.522133,61.1946667 176.477867,60.2485333 L168.414933,52.9365333 L158.887467,58.1973333 C157.6544,58.8789333 156.2624,57.5968 156.840533,56.3114667 L161.3024,46.3829333 L153.3536,38.9461333 C152.325333,37.9882667 153.1136,36.2698667 154.514133,36.4213333 Z" id="Path" fill="#FFE15A"></path>
            <path d="M171.621333,141.9072 L165.184,150.685867 L154.795733,147.4368 C153.450667,147.016533 152.344533,148.5504 153.168,149.6928 L159.527467,158.525867 L153.227733,167.4016 C152.411733,168.5504 153.528533,170.0768 154.8704,169.646933 L165.237333,166.328533 L171.732267,175.063467 C172.5728,176.194133 174.370133,175.6032 174.375467,174.1952 L174.423467,163.309867 L184.738133,159.831467 C186.0736,159.380267 186.0672,157.490133 184.728533,157.048533 L174.392533,153.639467 L174.270933,142.7552 C174.253867,141.349333 172.4544,140.770133 171.621333,141.9072 Z" id="Path" fill="#FFE15A"></path>
            <path d="M210.810667,117.319467 L199.989333,118.494933 L195.3728,108.637867 C194.7744,107.362133 192.897067,107.5808 192.609067,108.96 L190.382933,119.613867 L179.581867,120.957867 C178.183467,121.131733 177.8112,122.9856 179.034667,123.6864 L188.48,129.0944 L186.420267,139.7824 C186.1536,141.166933 187.8016,142.0928 188.845867,141.146667 L196.9088,133.834667 L206.436267,139.095467 C207.669333,139.777067 209.061333,138.494933 208.4832,137.2096 L204.021333,127.281067 L211.970133,119.844267 C213.0016,118.8864 212.213333,117.168 210.810667,117.319467 Z" id="Path" fill="#FFE15A"></path>
        </g>
    </g>
</svg>