<?xml version="1.0" encoding="UTF-8"?>
<svg width="512px" height="511px" viewBox="0 0 512 511" version="1.1" xmlns="http://www.w3.org/2000/svg" xmlns:xlink="http://www.w3.org/1999/xlink">
    <!-- Generator: Sketch 55.2 (78181) - https://sketchapp.com -->
    <title>svg/ecpay</title>
    <desc>Created with Sketch.</desc>
    <g id="svg/ecpay" stroke="none" stroke-width="1" fill="none" fill-rule="evenodd">
        <polygon id="Path-4" fill="#EA7E01" fill-rule="nonzero" points="10.6195652 453.734602 369.003623 453.734602 397.26087 393.721016 497.228262 393.721016 456.863677 486.330615 7.42028986 486.330615"></polygon>
        <polygon id="Path-5" fill="#EA7E01" fill-rule="nonzero" points="402.819747 370.540761 414.183877 348.492754 510.907607 348.492754 502.628623 370.540761"></polygon>
        <path d="M361.104052,172.61194 L434.086957,172.61194 C434.086957,147.295808 433.62816,128.425258 432.710567,116.000288 C431.334177,97.3628334 423.702506,73.7227746 417.153039,64.0377533 C410.603576,54.352732 408.578111,51.536193 402.394943,44.9648444 C396.211775,38.3934957 390.016393,35.7370503 380.212977,30.7190771 C370.409558,25.7011038 349.182231,24.6818354 331.259447,26.6475771 C319.310924,27.9580715 307.537042,32.3962926 295.937803,39.9622401 C283.687468,48.223069 273.782186,56.24824 266.221954,64.0377533 C254.881607,75.7220233 233.459956,107.368042 220.957541,139.915707 C212.622598,161.614151 207.294146,181.894806 204.972183,200.757672 C199.199846,233.836805 196.425878,261.149197 196.650279,282.694849 C196.98688,315.013326 198.524581,335.67942 206.535189,350.828115 C214.545796,365.976811 226.914617,382.724883 241.172305,394.249337 C255.429992,405.773792 265.106171,407.951102 272.422637,409.523588 C279.739103,411.096073 290.616413,411.565217 297.507329,411.565217 C304.398245,411.565217 315.196845,410.25961 322.025703,408.209955 C328.854562,406.160301 343.897167,397.834246 362.257155,380.528677 C380.617146,363.223107 391.229522,344.458519 395.642335,336.205882 C400.055148,327.953245 402.533098,323.185403 404.76278,318.418736 C406.992462,313.65207 411.070286,301.594647 412.520088,297.785844 C414.431674,292.763874 418.270831,279.377938 424.037554,257.628036 L348.846926,257.628036 C347.726969,264.16144 346.294078,269.917978 344.548254,274.897651 C342.802429,279.877324 340.613841,284.45045 337.982489,288.61703 C330.896538,301.092376 324.726007,309.043264 319.470897,312.469693 C311.588231,317.609338 301.135054,319.214886 292.672442,317.123934 C284.209829,315.032982 280.460951,309.509883 277.228186,302.037996 C273.995421,294.566108 272.422637,268.627105 272.422637,257.628036 C272.422637,246.628966 272.167788,234.257136 278.941951,205.178817 C285.716114,176.100497 287.805288,168.460661 295.937803,150.942953 C304.070318,133.425246 309.627547,128.515764 318.008941,121.027226 C326.390334,113.538689 334.955533,111.719778 343.139267,113.538689 C351.323,115.3576 356.714923,123.401734 358.161396,128.236561 C359.607869,133.071387 361.104052,141.16828 361.104052,148.492881 C361.104052,153.375949 361.104052,161.415635 361.104052,172.61194 Z" id="Path-2" fill="#278539" fill-rule="nonzero"></path>
        <path d="M214.864587,407.328039 C83.6911226,408.030748 17.4460954,408.030748 16.1295051,407.328039 C14.1546195,406.273976 8.90907043,396.539917 7.597075,393.234136 C7.04046388,391.831666 6.15487317,387.550424 5.4157913,384.451006 C4.92307005,382.384726 4.35452184,379.342268 3.71014667,375.323631 L56.8256894,48.0380624 C58.2780038,41.2591951 60.691167,36.0918718 64.0651795,32.5360926 C67.4391923,28.9803134 71.1994887,26.7049973 75.3460699,25.7101442 L278.260871,25.7101442 C267.159968,32.5611011 259.540873,37.5177532 255.403585,40.5801004 C250.340601,44.3276318 241.229036,52.942385 238.812892,56.2081833 C230.746309,67.1114381 235.207623,60.312013 227.073718,72.9439076 C218.939813,85.5758024 216.483693,90.244339 211.818731,98.5365827 C208.708756,104.064745 204.292461,112.434185 198.569847,123.644904 L126.176567,123.644904 L115.198944,173.393072 L180.386602,173.393072 C176.212056,188.138373 172.959971,201.879629 170.630345,214.616841 C168.30072,227.354053 166.618878,240.609568 165.584818,254.383387 L103.759123,254.383387 L92.397145,314.115068 L165.584818,314.115068 C166.270457,322.391082 166.883892,328.180637 167.425123,331.483736 C168.298525,336.81406 169.422941,345.18423 170.630345,349.729867 C171.663194,353.618337 174.91528,360.624895 180.386602,370.74954 C184.182023,376.916969 188.299942,382.775864 192.740356,388.326223 C197.180771,393.876582 204.555515,400.210519 214.864587,407.328039 Z" id="Path" fill="#00478C" fill-rule="nonzero"></path>
    </g>
</svg>