<?xml version="1.0" encoding="UTF-8"?>
<svg width="512px" height="512px" viewBox="0 0 512 512" version="1.1" xmlns="http://www.w3.org/2000/svg" xmlns:xlink="http://www.w3.org/1999/xlink">
    <!-- Generator: Sketch 55.2 (78181) - https://sketchapp.com -->
    <title>svg/family-mart</title>
    <desc>Created with Sketch.</desc>
    <g id="svg/family-mart" stroke="none" stroke-width="1" fill="none" fill-rule="evenodd">
        <g id="Group" transform="translate(28.000000, 28.000000)" fill-rule="nonzero">
            <path d="M417.276257,271.392539 C417.276257,275.814734 417.437798,279.913846 417.215679,283.972573 C417.054137,286.920703 418.124349,287.708217 420.971515,287.667831 C427.170665,287.566868 426.867775,287.748602 427.271629,293.988137 C427.554326,298.309369 426.100454,299.722855 422.021534,299.036305 C418.407046,298.430525 416.751247,299.662277 417.195486,303.640234 C417.558954,306.749905 417.195486,309.940347 417.276257,313.110596 C417.437798,318.239534 419.780148,320.278994 424.666774,318.986663 C427.332207,318.279919 427.978372,319.006856 427.513941,321.288627 C426.887968,324.317528 429.634171,328.638759 425.898527,330.23398 C420.971515,332.334018 413.439649,331.647467 409.603042,327.790667 C406.957802,325.105042 405.685664,321.854022 405.584701,318.158763 C405.443352,312.949054 405.342389,307.719153 405.483737,302.509444 C405.544315,299.864204 404.797187,298.592066 402.030791,299.016112 C399.30478,299.440158 398.719193,298.006479 398.961505,295.664129 C399.102854,294.31122 399.123046,292.897733 398.961505,291.544824 C398.638422,288.738043 399.264395,287.001473 402.616378,287.566868 C404.756801,287.930336 405.867398,286.819739 405.402967,284.739894 C403.666397,277.268606 407.765509,274.098357 414.166586,272.482943 C415.075256,272.281017 415.943541,271.897356 417.276257,271.392539 Z M394.897809,301.297884 C392.616037,300.671911 390.940046,300.025746 389.203476,299.803626 C383.287023,298.995919 379.874462,302.004627 379.874462,307.900887 C379.874462,314.483697 379.793692,321.066508 379.914848,327.649318 C379.955233,329.951283 379.228297,330.658026 376.885947,330.698412 C367.779053,330.900338 367.779053,330.981109 367.779053,321.9146 C367.779053,311.636531 367.859823,301.338269 367.718475,291.0602 C367.678089,288.435153 368.324255,287.263978 371.110843,287.587061 C372.726257,287.788987 374.422441,287.768795 376.037855,287.587061 C378.400397,287.324556 379.672536,288.091877 379.288875,291.201549 C383.206253,287.80918 387.123631,286.193766 391.767945,287.284171 C393.867983,287.768795 395.099736,288.758236 394.938194,291.241934 C394.736268,294.492954 394.897809,297.784359 394.897809,301.297884 Z M329.857218,299.844012 C329.857218,298.551681 329.857218,297.360313 329.857218,296.148753 C329.837025,288.071685 329.978374,287.788987 338.055442,287.021666 C342.417059,286.59762 346.819061,286.355308 351.1201,287.647639 C357.662525,289.646713 361.17605,294.068908 361.297206,300.914223 C361.398169,306.951831 361.357784,312.98944 361.317398,319.027048 C361.277013,322.883848 361.55971,326.659878 363.780904,330.859953 C358.793314,329.587815 354.027844,332.616715 349.847962,328.901264 C349.141218,328.275291 348.071007,329.264732 347.202722,329.608007 C343.366114,331.122458 339.388158,331.283999 335.490973,330.254173 C328.140841,328.315677 324.849436,322.82327 325.717721,314.483697 C326.424464,307.577804 331.957256,302.570022 339.751626,301.863279 C342.88149,301.580581 345.991162,301.802701 349.141218,302.509444 C347.990236,296.047789 343.810353,295.502587 329.857218,299.844012 Z M349.504686,315.392368 C349.545072,310.94998 348.979677,310.303815 344.819987,310.182659 C340.821838,310.061503 337.550625,312.525008 337.469855,315.71545 C337.389084,318.522231 339.85259,320.70304 343.224766,320.804003 C347.404648,320.904967 349.464301,319.148204 349.504686,315.392368 Z M306.676033,289.747676 C302.637499,295.017963 298.41723,300.167094 294.641201,305.639308 C292.480585,308.769172 291.390181,308.668208 289.269951,305.598923 C285.493922,300.146902 281.273653,294.977578 276.427413,289.989988 C276.427413,298.571873 276.427413,307.133565 276.427413,315.71545 C276.427413,317.492405 276.427413,319.289553 276.427413,321.066508 C276.427413,331.768623 276.427413,331.708045 265.624334,330.678219 C263.766608,330.496485 263.342562,329.789741 263.342562,328.133943 C263.382948,309.193218 263.382948,290.252493 263.342562,271.311768 C263.342562,269.595391 263.92815,268.807877 265.74549,268.868455 C268.754198,268.949226 271.783098,268.949226 274.811999,268.868455 C276.447605,268.82807 277.255312,269.837704 278.14379,270.928108 C282.040975,275.713771 286.018931,280.438855 289.815153,285.305289 C291.390181,287.324556 292.399815,287.627446 294.095999,285.406252 C297.246056,281.246562 300.880736,277.45034 303.849059,273.189687 C306.251987,269.756933 309.058768,268.626143 313.15788,268.807877 C320.709938,269.110767 320.730131,268.888648 320.730131,276.400321 C320.730131,293.281394 320.669553,310.162466 320.79106,327.043538 C320.810902,329.951283 319.96281,330.718604 317.115643,330.698412 C307.483739,330.637834 307.483739,330.75899 307.483739,321.127086 C307.483739,310.768246 307.483739,300.409406 307.483739,290.050566 C307.201042,289.949603 306.938537,289.84864 306.676033,289.747676 Z M238.727697,310.162466 C241.251781,303.135417 243.614323,297.138194 245.512434,290.999622 C246.380719,288.213033 247.713435,287.344749 250.500024,287.566868 C253.488539,287.80918 256.497247,287.627446 259.990579,287.627446 C257.607844,294.149678 255.406843,300.167094 253.185649,306.18451 C249.167308,317.108745 245.068196,328.012786 241.17101,338.997599 C240.403689,341.158215 239.373863,341.925536 237.051706,341.965922 C226.34959,342.127463 226.167856,342.10727 230.266968,332.394596 C232.003538,328.275291 232.003538,324.822345 230.166005,320.743425 C225.804388,311.131714 222.048552,301.257498 217.808091,291.605402 C216.293641,288.152455 217.222503,287.526483 220.635065,287.566868 C230.044849,287.688024 230.044849,287.566868 233.437218,296.43145 C235.052631,300.631526 236.668045,304.831601 238.727697,310.162466 Z M200.523165,299.702663 C200.523165,290.514998 200.603936,281.327333 200.48278,272.119475 C200.442394,269.635777 201.149138,268.848263 203.713607,268.807877 C212.719538,268.686721 212.719538,268.585758 212.719538,277.430148 C212.719538,293.887174 212.638767,310.364393 212.800309,326.821419 C212.820501,329.910897 212.012794,330.75899 208.923316,330.698412 C200.543358,330.53687 200.543358,330.698412 200.543358,322.338646 C200.523165,314.80678 200.523165,307.254721 200.523165,299.702663 Z M179.945178,308.769172 C179.945178,302.731563 180.025948,296.693955 179.904792,290.656347 C179.864407,288.374575 180.530765,287.607253 182.9135,287.546675 C192.141551,287.284171 192.141551,287.183207 192.141551,296.330487 C192.141551,306.628749 192.06078,316.906818 192.202129,327.20508 C192.242514,329.870512 191.495385,330.678305 188.769375,330.678305 C179.96537,330.678305 179.96537,330.799375 179.96537,321.934793 C179.945178,317.552983 179.945178,313.171174 179.945178,308.769172 Z M193.777157,275.956083 C193.696386,280.337892 190.162669,283.669683 185.740474,283.548527 C181.540399,283.427371 178.228801,280.055195 178.208523,275.834927 C178.188415,271.533888 181.762518,267.979978 186.083749,268.000085 C190.465559,268.020363 193.857928,271.533888 193.777157,275.956083 Z M113.087247,309.233603 C113.087247,303.882546 113.046861,298.531488 113.107439,293.160238 C113.168017,286.799547 112.218962,287.566868 118.438304,287.708217 C120.538342,287.748602 123.446086,286.112996 124.698032,289.646713 C124.980729,290.45442 125.889399,289.586135 126.414409,289.32363 C132.694329,285.99184 138.812708,286.032225 144.486849,290.535191 C146.122455,291.827521 146.889777,290.737117 147.980181,290.010181 C152.462954,287.001473 157.34958,286.335115 162.539096,287.627446 C168.778631,289.182282 172.372926,293.624669 172.433504,300.066131 C172.514275,309.273989 172.393119,318.461653 172.494552,327.669511 C172.514275,329.971476 171.888302,330.678219 169.505567,330.718604 C160.156361,330.900338 160.156361,331.001302 160.156361,321.672288 C160.156361,316.179882 160.216939,310.687475 160.136168,305.195069 C160.07559,300.712296 158.157287,298.511295 154.583184,298.531488 C150.827347,298.531488 148.686924,300.934416 148.686924,305.215262 C148.666732,312.625972 148.585961,320.056874 148.72731,327.467584 C148.767695,329.951283 148.101337,330.718604 145.516675,330.738797 C136.429973,330.819568 136.429973,330.920531 136.429973,321.813637 C136.429973,316.32123 136.490551,310.828824 136.409781,305.336418 C136.349203,300.833452 134.430899,298.511295 130.998145,298.551681 C127.242308,298.592066 125.182656,300.954608 125.182656,305.296032 C125.162463,312.565394 125.101885,319.854948 125.223041,327.124309 C125.263427,329.587815 124.859573,330.75899 121.911443,330.75899 C113.087247,330.738797 113.087247,330.900338 113.087247,322.035756 C113.087247,317.734717 113.087247,313.494257 113.087247,309.233603 Z M94.1271968,302.469059 C92.6531319,295.886248 87.3626523,295.21989 74.7018481,300.005553 C74.7018481,296.875689 74.7422334,293.927559 74.6816554,290.999622 C74.6412701,289.202474 75.8528303,288.758236 77.2259318,288.313997 C83.1019989,286.456271 89.1396073,286.112996 95.096445,287.425519 C102.507155,289.061126 106.343762,294.169871 106.444726,301.984435 C106.525496,307.880694 106.505304,313.776954 106.444726,319.673214 C106.40434,323.368472 106.363955,327.043538 108.706305,330.617641 C104.728349,330.617641 100.407117,331.889779 97.7820702,330.314751 C94.0060408,328.073365 91.4415717,330.294558 88.3924785,330.658026 C75.4287842,332.192669 67.3113308,323.227124 71.1681308,311.535568 C73.0056638,305.982583 78.3567214,302.226747 85.1414586,301.802701 C88.1299738,301.641159 91.0982963,301.742123 94.1271968,302.469059 Z M94.2887382,314.604853 C95.2579864,310.889402 92.5117832,310.3442 89.583846,310.202851 C85.5049266,310.000925 82.4356408,312.585586 82.5769895,315.957762 C82.7385308,319.673214 85.2424219,320.743425 88.4530565,320.743425 C92.8146733,320.783811 94.3089309,319.26936 94.2887382,314.604853 Z M29.0622328,299.90459 C29.0622328,290.716925 29.1430035,281.52926 29.0016548,272.341595 C28.9612695,269.696355 29.6478202,268.807877 32.4142161,268.848263 C43.25768,269.009804 54.0809512,269.009804 64.9244152,268.848263 C67.6706183,268.807877 68.4177471,269.635777 68.4379398,272.321402 C68.4985178,281.185984 68.5994811,281.185984 59.7348989,281.185984 C54.7876947,281.185984 49.8606832,281.347526 44.9134789,281.125406 C42.0865051,281.00425 41.4605323,282.074462 41.541303,284.659123 C41.7836151,293.119852 40.6326329,291.625595 48.3866182,291.746751 C53.8790245,291.827521 59.3714308,291.867907 64.8436445,291.706365 C67.1859942,291.645787 67.8321597,292.392916 67.872545,294.735266 C68.0744717,304.003702 68.1552424,304.003702 58.7454581,304.003702 C54.2222999,304.003702 49.6789491,304.165243 45.1759837,303.943124 C42.2076611,303.801775 41.4605323,304.912372 41.541303,307.719153 C41.723037,314.301963 41.480725,320.884774 41.6422664,327.467584 C41.7028444,329.971476 40.9759082,330.698412 38.4114391,330.718604 C29.0824255,330.799375 29.0824255,330.900338 29.0824255,321.732866 C29.0622328,314.443312 29.0622328,307.173951 29.0622328,299.90459 Z" id="Combined-Shape" fill="#2E8FD3"></path>
            <path d="M227.661153,406.90533 C301.912063,406.90533 376.162973,406.912885 450.413882,406.87511 C454.667475,406.87511 456.023016,407.169756 456,408.627878 C455.812674,423.790828 455.836045,438.953778 456,454.116728 C456.023016,455.582404 454.901189,455.997931 450.250283,455.997931 C302.075663,455.960156 153.877672,455.960156 5.70305172,455.997931 C1.05214488,455.997931 0,455.620179 0,454.146948 C0.18740341,439.036883 0.18740341,423.926818 0,408.816753 C-0.0229391099,407.313302 0.888545145,406.86 5.86665146,406.86 C79.813733,406.927995 153.737443,406.90533 227.661153,406.90533 Z" id="Path" fill="#2E8FD3"></path>
            <path d="M228.222103,0.124956897 C302.317012,0.124956897 376.411921,0.187435345 450.50683,-1.42108547e-14 C454.807608,-1.42108547e-14 456.023045,1.34328664 456,7.2475 C455.836054,69.9446228 455.81268,132.610506 456,195.307629 C456.023045,201.586713 454.667365,202.898761 450.156224,202.898761 C301.966405,202.742565 153.79996,202.711325 5.61014202,202.93 C0.888636759,202.93 -0.0229409891,201.211843 0,195.213912 C0.164049318,132.329353 0.164049318,69.413556 0,6.52899784 C-0.0229409891,1.06213362 1.09900085,-1.42108547e-14 4.97904973,-1.42108547e-14 C79.401192,0.187435345 153.79996,0.124956897 228.222103,0.124956897 Z" id="Path" fill="#469740"></path>
        </g>
    </g>
</svg>