<?xml version="1.0" encoding="UTF-8"?>
<svg width="512px" height="512px" viewBox="0 0 512 512" version="1.1" xmlns="http://www.w3.org/2000/svg" xmlns:xlink="http://www.w3.org/1999/xlink">
    <!-- Generator: Sketch 55.2 (78181) - https://sketchapp.com -->
    <title>svg/hct</title>
    <desc>Created with Sketch.</desc>
    <g id="svg/hct" stroke="none" stroke-width="1" fill="none" fill-rule="evenodd">
        <g id="hct" fill-rule="nonzero">
            <circle id="Oval" fill="#01579D" cx="256" cy="256" r="256"></circle>
            <polygon id="Path-3" fill="#FFFFFF" points="182.122917 194 212.395833 194 170.133333 315.620833 140.583334 315.620833"></polygon>
            <polygon id="Path-3" fill="#FFFFFF" points="105.322917 194 135.595833 194 93.3333333 315.620833 63.7833334 315.620833"></polygon>
            <path d="M62,317.292386 C80.5491499,295.139199 97.9130386,277.150071 114.091667,263.325 C127.522227,251.848227 132.814475,247.940242 140.583334,242.485417 C146.852177,238.083812 154.575552,232.06701 170.7125,224.9625 C194.802606,214.356504 223.830384,206.054768 257.795833,200.057292 C230.210224,211.876121 211.148765,220.177857 200.611459,224.9625 C184.805498,232.139465 174.42472,237.692372 161.670834,246.129167 C148.916947,254.565961 137.681771,265.879166 135.595833,267.970833 C133.509896,270.0625 123.753536,280.051003 116.444792,290.859375 C111.572295,298.064956 107.02542,306.87596 102.804167,317.292386 L62,317.292386 Z" id="Path-6" fill="#ABCB0E"></path>
            <path d="M283.957292,196.3 C270.492361,203.305556 262.613542,207.802778 260.320833,209.791666 C256.881771,212.775 247.963544,220.002966 241.835417,229.560416 C235.707289,239.117867 234.569792,246.8625 233.830729,251.105729 C233.091667,255.348958 232.53165,259.638296 233.830729,266.230208 C235.129809,272.82212 235.107396,274.426376 239.179687,280.865625 C243.251979,287.304874 246.627083,289.705729 250.211979,292.132813 C253.796875,294.559896 260.892412,298.19305 263.908333,299.027083 C266.887294,299.850895 271.440238,300.852739 277.0375,300.841146 C282.537674,300.829753 289.084621,299.819052 291.827083,299.027083 C297.360417,297.429167 301.447916,295.969791 310.418229,291.363541 C316.398438,288.292708 325.679166,282.852083 338.260417,275.041667 C321.366238,292.165693 309.751307,302.697637 303.415625,306.6375 C296.755076,310.779383 292.246316,312.123337 288.421875,313.95625 C282.946382,316.580451 272.342857,317.764475 263.908333,317.292386 C259.999991,317.073632 254.631935,315.961587 247.804167,313.95625 C239.595617,311.23243 232.193534,306.256041 225.597917,299.027083 C215.70449,288.183647 212.174989,273.242187 212.174989,263.91927 C212.174989,260.196001 212.0583,259.398877 212.174989,255.427671 C212.350485,249.455138 213.553384,242.835567 218.477083,234.466146 C221.454453,229.405142 223.254846,226.736209 227.183334,222.7875 C231.111822,218.838791 233.928703,216.739339 239.179687,213.210937 C247.425627,207.670075 250.989157,206.523663 260.320833,202.039584 C266.541951,199.050197 274.420771,197.137003 283.957292,196.3 Z" id="Path-4" fill="#FFFFFF"></path>
            <path d="M332.122917,194 L448.297917,194 C438.971568,196.914573 429.524345,200.861795 419.95625,205.841667 C415.935416,207.934375 412.465556,210.726502 410.444792,212.409375 C408.298431,214.196844 401.773958,219.071875 398.859896,224.68802 C396.917187,228.432118 395.066146,232.33941 393.306771,236.409896 C390.764664,242.251615 388.217789,248.663714 385.666146,255.646193 C381.838682,266.119912 382.445263,263.718298 378.4625,273.653125 C374.479737,283.587952 374.177604,282.825 370.559896,293.247916 C368.14809,300.196528 365.617014,307.654166 362.966666,315.620833 L330.166666,315.620833 L350.4875,284.35 C355.9614,274.281161 360.121122,265.722773 362.966666,258.674839 C364.719256,254.333971 367.28495,249.161024 368.798958,242.803645 C369.808297,238.565394 370.395276,234.149943 370.559896,229.557292 C369.881269,224.423441 368.675366,219.960073 366.942188,216.167188 C364.342419,210.477859 362.398216,208.637273 359.722917,205.841667 C354.623456,200.512885 345.423456,196.565663 332.122917,194 Z" id="Path-5" fill="#FFFFFF"></path>
        </g>
    </g>
</svg>