<?xml version="1.0" encoding="UTF-8"?>
<svg width="60px" height="60px" viewBox="0 0 60 60" version="1.1" xmlns="http://www.w3.org/2000/svg" xmlns:xlink="http://www.w3.org/1999/xlink">
    <!-- Generator: Sketch 55.2 (78181) - https://sketchapp.com -->
    <title>Icon/icon-hct</title>
    <desc>Created with Sketch.</desc>
    <g id="Icon/icon-hct" stroke="none" stroke-width="1" fill="none" fill-rule="evenodd">
        <g id="Group">
            <circle id="Oval" fill="#4F566B" cx="30" cy="30" r="30"></circle>
            <ellipse id="Oval" fill="#4F566B" cx="30" cy="30" rx="29.5" ry="15"></ellipse>
            <polygon id="Path-3" fill="#FFFFFF" points="20.0432129 22.4716797 23.5908203 22.4716797 18.6381836 36.7241211 15.175293 36.7241211"></polygon>
            <polygon id="Path-3" fill="#FFFFFF" points="11.0432129 22.4716797 14.5908203 22.4716797 9.63818359 36.7241211 6.17529297 36.7241211"></polygon>
            <path d="M31.9769287,22.7412109 C30.3990072,23.5621745 29.475708,24.0891927 29.2070312,24.3222656 C28.8040161,24.671875 27.7589114,25.5189023 27.0407715,26.638916 C26.3226315,27.7589297 26.1893311,28.6665039 26.1027222,29.1637573 C26.0161133,29.6610107 25.9504863,30.1636675 26.1027222,30.9361572 C26.2549581,31.7086469 26.2523316,31.8966456 26.7295532,32.6512451 C27.2067749,33.4058446 27.6022949,33.6871948 28.0223999,33.9716187 C28.4425049,34.2560425 29.2740131,34.6818028 29.6274414,34.779541 C29.9765384,34.8760814 30.5100865,34.9934851 31.1660156,34.9921265 C31.8105673,34.9907914 32.5777876,34.8723498 32.8991699,34.779541 C33.5476074,34.5922852 34.0266113,34.4212646 35.0778198,33.8814697 C35.7786255,33.5216064 36.8662109,32.8840332 38.3405762,31.96875 C36.3607896,33.9754718 34.9996649,35.209684 34.2572021,35.6713867 C33.4766691,36.1567636 32.9482987,36.3142583 32.5001221,36.5290527 C31.8584627,36.8365763 30.6158621,36.9753291 29.6274414,36.9200062 C29.1694325,36.894371 28.5403635,36.7640532 27.7402344,36.5290527 C26.778295,36.2098551 25.9108634,35.6266845 25.1379395,34.779541 C23.9785535,33.5088258 23.5649401,31.7578735 23.5649401,30.6653442 C23.5649401,30.2290236 23.5512656,30.1356106 23.5649401,29.6702349 C23.585506,28.9703287 23.7264708,28.1945977 24.3034668,27.2138062 C24.6523773,26.6207198 24.8633608,26.3079542 25.3237305,25.8452148 C25.7841002,25.3824755 26.1142035,25.136446 26.7295532,24.7229614 C27.6958742,24.0736416 28.1134754,23.9392964 29.2070312,23.4138184 C29.9360685,23.0634997 30.8593677,22.8392972 31.9769287,22.7412109 Z" id="Path-4" fill="#FFFFFF"></path>
            <path d="M37.6213379,22.4716797 L51.2355957,22.4716797 C50.1426642,22.8132312 49.0355678,23.2757963 47.9143066,23.859375 C47.4431152,24.1046143 47.0364909,24.4318167 46.7996826,24.6290283 C46.548156,24.8384973 45.7835693,25.40979 45.4420776,26.0679321 C45.2144165,26.5066935 44.9974976,26.9645793 44.7913208,27.4415894 C44.4934176,28.1261658 44.1949557,28.8775837 43.8959351,29.695843 C43.4474041,30.9232319 43.5184878,30.6417927 43.0517578,31.8060303 C42.5850278,32.9702678 42.5496216,32.8808594 42.1256714,34.1022949 C41.8430379,34.9165853 41.5464274,35.7905273 41.2358398,36.7241211 L37.3920898,36.7241211 L39.7734375,33.0595703 C40.4149102,31.8796282 40.9023776,30.8766922 41.2358398,30.0507624 C41.4412214,29.5420669 41.7418887,28.9358622 41.9193115,28.1908569 C42.0375934,27.6941868 42.10638,27.1767511 42.1256714,26.6385498 C42.0461448,26.0369267 41.9048281,25.5138758 41.7017212,25.069397 C41.3970608,24.4026788 41.1692245,24.1869851 40.8557129,23.859375 C40.2581198,23.2349084 39.1799948,22.7723433 37.6213379,22.4716797 Z" id="Path-5" fill="#FFFFFF"></path>
            <path d="M5.96630859,36.9200062 C8.14003709,34.3239296 10.1748678,32.2158286 12.0708008,30.5957031 C13.6446946,29.2507688 14.2648799,28.7928018 15.175293,28.1535645 C15.9099231,27.6377514 16.8150061,26.9326574 18.7060547,26.1000977 C21.529114,24.8572075 24.9308067,23.8843478 28.9111328,23.1815186 C25.6784442,24.5665376 23.4446795,25.5393973 22.2098389,26.1000977 C20.3575779,26.9411482 19.1410805,27.5918796 17.6464844,28.5805664 C16.1518883,29.5692532 14.8352661,30.8950195 14.5908203,31.1401367 C14.3463745,31.3852539 13.2030511,32.5557816 12.3465576,33.8223877 C11.7755619,34.6667917 11.242725,35.6993313 10.7480469,36.9200062 L5.96630859,36.9200062 Z" id="Path-6" fill="#FFFFFF"></path>
        </g>
    </g>
</svg>