<?xml version="1.0" encoding="UTF-8"?>
<svg width="466px" height="466px" viewBox="0 0 466 466" version="1.1" xmlns="http://www.w3.org/2000/svg" xmlns:xlink="http://www.w3.org/1999/xlink">
    <!-- Generator: Sketch 55.2 (78181) - https://sketchapp.com -->
    <title>Icon/black-cat</title>
    <desc>Created with Sketch.</desc>
    <g id="Icon/black-cat" stroke="none" stroke-width="1" fill="none" fill-rule="evenodd">
        <g id="Group-5" fill="#4F566B">
            <polygon id="Path-8" points="181 316.615477 210.696598 287 222 344.482455 202.731319 352"></polygon>
            <g id="Group-2" transform="translate(60.000000, 178.000000)">
                <path d="M0,0 L32.68706,25.1124825 L70.3363263,24.0019255 L100.912583,8.932448 C101.150668,12.987349 100.902425,17.0013101 100.167853,20.9743314 C99.0659946,26.9338633 98.814597,29.2887933 95.6764658,37.2526153 C92.5383346,45.2164374 90.3995956,49.2979034 87.3821128,53.421463 C84.36463,57.5450225 83.0022493,58.6554361 80.0645198,61.1457198 C77.1267904,63.6360035 73.1178947,65.7781376 70.3363263,67.471624 C68.4819473,68.6006149 64.5411764,69.9261721 58.5140135,71.4482957 C53.6518835,72.1839014 49.1066704,72.1839014 44.8783741,71.4482957 C40.6500779,70.7126899 36.0112349,69.1149201 30.9618451,66.654986 C23.0529307,60.1101574 17.8422295,54.8375978 15.3297417,50.8373073 C11.5610099,44.8368715 11.3620459,45.0700423 8.41880332,38.9505802 C6.45664164,34.8709389 4.62990914,29.6160512 2.93860582,23.1859173 L0,0 Z M18.7699115,42.4855135 C18.7699115,43.54552 18.8008709,44.1842224 19.3790156,44.8621275 C19.7644454,45.3140642 20.3019772,45.737201 20.9916109,46.131538 C21.2518729,46.2562913 21.6353054,46.318668 22.1419084,46.318668 C22.9018128,46.318668 23.9759,45.7909679 25.5950703,45.8291391 C27.2142407,45.8673103 28.5812022,45.98956 30.351237,46.318668 C32.1212717,46.647776 32.1180919,46.7594649 34.4627104,47.4007408 C36.807329,48.0420167 37.7259758,48.8003738 38.3423086,49.4001869 C38.9586414,50 39.1451222,50 40.2038476,50 C40.9096645,50 41.5020329,49.8000623 41.9809527,49.4001869 C43.1200528,48.2891758 43.6896028,47.524248 43.6896028,47.1054034 C43.6896028,46.4771366 44.2489846,45.2918342 42.808041,43.7358164 C41.3670975,42.1797986 41.0047511,41.7587344 37.9602683,40.4106753 C35.930613,39.5119693 33.9332536,38.8805179 31.9681902,38.5163211 C30.2439026,38.172107 28.2840089,38 26.0885089,38 C23.8930089,38 22.3197555,38.172107 21.3687487,38.5163211 C20.6198442,38.950946 20.0462389,39.4248288 19.6479328,39.9379695 C19.0504737,40.7076804 18.7699115,41.425507 18.7699115,42.4855135 Z M81.3339618,43.3873725 C81.3339618,42.3135265 81.32197,41.2080231 80.7018669,40.4282627 C80.2884648,39.9084224 79.7305603,39.4197962 79.0281534,38.962384 C77.7563823,38.3207947 75.9811415,38 73.702431,38 C71.4237206,38 69.5172638,38.1746346 67.9830606,38.5239038 C65.6098356,39.3300733 63.369933,40.1883779 61.2633529,41.0988175 C58.1034827,42.4644769 58.0271925,42.3629267 56.5316365,43.93926 C55.5345992,44.9901488 55.2058039,46.3545431 55.5452508,48.0324427 L57.2433059,50.3923244 C57.740377,50.7974415 58.3551964,51 59.0877641,51 C60.1866157,51 60.4518524,50.8655211 61.0198562,50.3923244 C61.58786,49.9191277 62.5929081,49.2818166 65.046493,48.3667733 C67.5000779,47.45173 67.4766733,47.6039778 69.3137932,47.2705729 C71.1509131,46.9371681 72.5696831,46.8133223 74.2502208,46.7746527 C75.9307585,46.7359832 77.045554,47.2705729 77.8342592,47.2705729 C78.3600626,47.2705729 78.7580274,47.2073819 79.0281534,47.0809997 C79.6731211,46.977908 80.2310256,46.5492466 80.7018669,45.7950157 C81.4081287,44.6636693 81.3339618,44.4612185 81.3339618,43.3873725 Z" id="Combined-Shape"></path>
            </g>
            <path d="M82.7010427,244.635401 C85.5310122,247.128247 88.8681161,249.24978 92.7123545,251 C96.5565929,252.75022 100.768706,254.065725 105.348693,254.946514 C110.690806,255.486142 115.017191,255.486142 118.327845,254.946514 C123.293828,254.137073 128.080041,252.939185 134.794978,249.248242 C141.509915,245.557299 142.233021,244.526693 147.241717,239.053669 C150.580847,235.404986 153.616052,230.953059 156.347333,225.697886 C162.155884,225.421896 167.15343,224.217161 171.33997,222.083682 C177.619781,218.883462 176.460032,219.656474 181.970715,215.495511 C187.481397,211.334548 186.709177,211.334548 191.409939,206.542407 C194.54378,203.347646 197.534124,198.307492 200.380972,191.421944 L320.003368,191.421944 L419.920091,150 L426,165.555903 L334.617683,226.361043 L366.100468,336.202727 L350.670764,347.118483 L300.850493,295.916439 L258.512074,352 L241.157877,341.985357 L258.512074,277.823474 L214.162801,277.823474 L138.056754,352 L118.327845,337.572439 L133.702313,311.539633 L100.224455,331.256358 L94.7381141,323.96017 L97.5836465,317.050174 L91.6782132,319.579922 L86.1475958,312.717224 L101.186263,294.73641 L101.186263,276.542021 L84.4317718,270.794012 L83.3160916,262.045705 L92.7123545,259.51547 L75,255.755956 L75,247.184654 L82.7010427,244.635401 Z M145.296631,251.704346 L145.296631,292.102539 L157.515381,274.964844 L145.296631,251.704346 Z" id="Combined-Shape"></path>
            <g id="Group" transform="translate(65.000000, 102.000000)">
                <path d="M0,1.58618743 L41.1023732,36.6371086 L97.6353911,35.8425453 L147,0 L147,24.1592315 L143.749972,48.787755 L134.541558,82.365158 C132.011256,88.8463139 128.482238,94.8442382 123.954504,100.358931 C117.162904,108.63097 112.878635,110.44724 109.017479,112.864241 C106.443375,114.475574 101.621626,116.187494 94.5522326,118 C97.0618784,111.812628 98.8610428,105.543318 99.9497257,99.1920691 C101.038409,92.8408205 101.582992,85.4369796 101.583476,76.9805465 L62.600611,95.2231715 L29.9221013,95.2231715 C23.7845898,90.5907881 18.9720144,85.4199216 15.4843751,79.710572 C11.9967358,74.0012224 9.28357379,66.8522753 7.34488907,58.2637308 C5.09039883,50.1719758 3.42534181,41.9760209 2.34971799,33.6758662 C1.27409417,25.3757115 0.490854843,14.6791519 0,1.58618743 Z M27.7865854,62.2330991 L28.5283105,65.0058154 C28.9976604,65.5330749 29.6522296,66.0267345 30.4920181,66.4867943 C30.8089473,66.6323399 31.275865,66.7051127 31.8927712,66.7051127 C32.8181306,66.7051127 34.1260801,66.0894626 36.0977944,66.1339956 C38.0695087,66.1785287 39.7341004,66.3211534 41.889527,66.7051127 C44.0449536,67.089072 44.0410814,67.2193757 46.8961966,67.9675309 C49.7513118,68.7156861 50.8699768,69.6004362 51.6205045,70.3002181 C52.3710322,71 52.5981156,71 53.8873586,71 C54.7468539,71 55.4681994,70.7667394 56.051395,70.3002181 C57.4385127,69.0040384 58.1320716,68.1116226 58.1320716,67.6229707 C58.1320716,66.8899927 58.8132482,65.5071399 57.0585663,63.6917858 C55.3038843,61.8764317 54.8626439,61.3851901 51.155282,59.8124546 C48.6837074,58.7639642 46.2514606,58.0272709 43.8585414,57.6023746 C41.7588226,57.2007915 39.3721988,57 36.6986699,57 C34.0251411,57 32.1093413,57.2007915 30.9512706,57.6023746 C30.0393062,58.109437 29.3408091,58.6623003 28.8557793,59.2609644 C28.1282347,60.1589605 27.7865854,60.9964249 27.7865854,62.2330991 Z M111.146341,63.2161991 C111.146341,61.977146 111.13181,60.7015651 110.380375,59.8018416 C109.879418,59.2020259 109.203354,58.6382264 108.352184,58.1104431 C106.811063,57.3701477 104.659843,57 101.898522,57 C99.1372013,57 96.8269743,57.2015015 94.9678408,57.6045044 C92.0919884,58.5347 89.3776948,59.5250514 86.8249602,60.5755587 C82.9958582,62.1513195 82.9934307,62.5981075 81.1811296,64.4169536 C79.9729288,65.6295177 79.544491,67.0158316 79.895816,68.5758955 L81.9535038,71.2988358 C82.55585,71.7662786 83.3008826,72 84.1886015,72 C85.5201798,72 85.8415913,71.844832 86.5298931,71.2988358 C87.218195,70.7528397 88.4361031,70.0174807 91.409335,68.9616615 C94.3825668,67.9058424 94.3542054,68.0815128 96.5804106,67.6968149 C98.8066158,67.312117 100.525868,67.169218 102.562329,67.1245993 C104.598789,67.0799806 105.949688,67.6968149 106.905434,67.6968149 C107.542598,67.6968149 108.024848,67.6239022 108.352184,67.4780766 C109.13375,67.3591246 109.809813,66.8645154 110.380375,65.9942489 L111.146341,63.2161991 Z" id="Combined-Shape"></path>
            </g>
            <path d="M113.549805,102 C120.492012,97.1754017 118.592906,97.8320864 128.952098,93.3922033 C144.490885,86.7323786 143.882081,86.8126276 163.984003,81.1515723 C184.085925,75.4905171 178.417015,76.4148897 198.247979,73.8772629 C218.078943,71.3396361 216.552604,72.10992 234.642413,72.10992 C252.732223,72.10992 251.128879,72.1808736 263.597323,73.8772629 C276.065766,75.5736522 285.478122,76.9326516 301.098464,81.1515723 C316.718805,85.3704931 321.462407,86.9382287 335.850406,93.3922033 C350.238404,99.8461778 356.662633,102.660144 370.778015,112.407486 C377.051518,116.739638 387.36412,125.081023 401.71582,137.431641 L438.456055,123.814453 C435.504313,117.093811 430.440511,108.824605 423.264648,99.0068359 C416.088786,89.1890666 408.00057,79.4641317 399,69.8320312 L372.732422,45.7529297 L338.592773,25.5175781 L303.34082,10.7851562 L264.548828,1.9453125 L236.869141,1.42108547e-14 L217.418945,1.42108547e-14 L184.544922,5.1640625 L141.703125,18.1611328 C133.780648,20.9131984 122.554403,27.0678208 108.02439,36.625 C93.4943778,46.1821792 82.9315602,54.5845229 76.3359375,61.8320312 L113.549805,102 Z" id="Path-22"></path>
            <path d="M34.1601562,113.21875 C30.9164211,118.264821 27.1459133,124.994965 22.8486328,133.40918 C18.5513523,141.823395 15.1135268,150.353668 12.5351563,159 L4.57714844,188.371094 L1.77246094,206.306641 L0,233 L1.77246094,263.393555 L7.38867188,290.307617 L20.2382812,328.999023 L38.9003906,362.083008 L64.4580078,394 L90.0859375,417.258789 L118.383789,436.163086 L148.619141,450.431641 L185.785156,461.242188 L218.004883,466 L250.5,466 L281.982422,461.242188 L316.68457,450.431641 L348.804688,436.163086 L387.171875,407.84668 L414.046875,380.928711 L434.360352,350.365234 L454.379883,307.467773 L463.308594,272.186523 C464.622316,265.049004 465.519451,256.596205 466,246.828125 C466.720823,232.176005 467.348175,234.886456 466,217.478516 C464.651825,200.070575 464.05894,196.800361 461.038086,182.758789 C459.695484,176.51809 458.388844,171.275903 457.118164,167.032227 L430.461598,184.578507 C433.328199,192.646271 435.302267,198.984369 436.383802,203.592802 C438.817254,213.961775 439.487897,219.101033 439.81784,224.445584 C440.147784,229.790135 440.147784,236.619159 438.796804,248.409876 C437.445825,260.200592 436.383802,264.232578 434.729255,268.856384 C433.074708,273.480189 430.724047,281.32342 424.41152,293.462315 C418.098993,305.601209 417.455085,306.973858 409.515717,317.34164 C401.57635,327.709423 400.71433,328.470699 390.812017,337.338903 C380.909703,346.207108 378.912705,347.031564 368.460504,354.109415 C358.008303,361.187266 360.13858,360.730212 346.169511,367.569187 C332.200443,374.408161 331.653757,374.682489 316.054806,379.766189 C300.455855,384.849888 300.233958,384.712799 283.110288,388.120193 C271.694509,390.391789 259.962031,392.126916 247.912854,393.325576 C237.746662,394.224808 226.638584,394.224808 214.588621,393.325576 C207.266421,392.779154 203.47608,391.969222 200.060821,391.667275 C195.045467,391.223862 190.909056,391.097308 178.159305,388.120193 C156.727473,383.115779 154.452074,382.086083 137.090426,375.420232 C119.728778,368.754381 119.793585,368.778318 104.825298,359.96425 C89.8570108,351.150181 89.6099599,350.528146 77.9425716,340.591047 C66.2751832,330.653947 66.6786349,330.875446 57.4379039,319.604468 C48.197173,308.333491 48.2624434,308.134949 41.6460105,296.319903 C35.0295776,284.504858 34.2797768,282.185698 30.9036575,272.221937 C27.5275383,262.258176 28.0700689,261.593783 26.6360003,252.021659 C25.2019317,242.449535 25,242.888013 25,232.81619 C25,222.744368 25.2337977,221.750413 26.6360003,212.671458 C28.038203,203.592502 26.7227873,206.672266 30.9036575,194.591299 C35.0845277,182.510332 34.3406062,183.69688 38.9003906,175.348633 C41.9402469,169.783134 42.4187896,168.143145 46.8535156,162.842773 C43.3818456,152.222982 40.7308039,143.321615 38.9003906,136.138672 C37.0699774,128.955729 35.4898992,121.315755 34.1601562,113.21875 Z" id="Path-23"></path>
        </g>
    </g>
</svg>