<?xml version="1.0" encoding="UTF-8"?>
<svg width="273px" height="273px" viewBox="0 0 273 273" version="1.1" xmlns="http://www.w3.org/2000/svg" xmlns:xlink="http://www.w3.org/1999/xlink">
    <!-- Generator: Sketch 55.2 (78181) - https://sketchapp.com -->
    <title>Icon/icon-bird</title>
    <desc>Created with Sketch.</desc>
    <g id="Icon/icon-bird" stroke="none" stroke-width="1" fill="none" fill-rule="evenodd">
        <g id="Group">
            <circle id="Oval" fill="#4F566B" cx="136.5" cy="136.5" r="136.5"></circle>
            <path d="M59.7802734,94.8972168 C59.2774022,92.3318863 58.997617,90.4571304 58.940918,89.2729492 C58.8558694,87.4966774 59.0033439,86.760481 59.3984375,85.1796875 C59.6618332,84.1258252 60.040758,83.1365674 60.5352119,82.2119141 C60.3396668,78.9858349 60.3396668,76.2044221 60.5352119,73.8676758 C60.8285296,70.3625563 61.019027,69.1332202 61.8085937,66.9951172 C62.5981605,64.8570142 62.4370777,65.1766077 64.3339844,63.5808105 C65.5985888,62.5169458 66.9931293,61.7737003 68.5176059,61.3510742 C68.1526144,58.5871072 68.1526144,56.3934223 68.5176059,54.7700195 C69.0650933,52.3349154 69.9427362,51.496162 70.9931641,50.340332 C71.6934493,49.5697787 72.6327397,49.3031771 73.8110352,49.5405273 C74.7996296,49.8460224 75.5444212,50.828607 76.0454102,52.4882812 C76.5463991,54.1479555 76.6601686,56.0096092 76.3867187,58.0732422 L80,73.8676758 L82.0854492,73.8676758 L86.6738281,70.3676758 L92.7762241,67.7119141 L98.2192383,67.7119141 L106.847656,67.7119141 L112.428711,69.7172852 L113.385254,70.3676758 L116.352539,64.5498047 L121.321289,59.3974609 L127.007324,56.4541016 C129.02536,55.9454437 130.507131,55.9454437 131.452637,56.4541016 C132.398143,56.9627594 132.740102,57.9438792 132.478516,59.3974609 L131.452637,62.675293 L133.109863,64.5498047 L131.452637,70.3676758 L134.016113,73.8676758 L132.478516,78.4604492 L130.421875,81.7329102 L129.359375,87.8051758 L125.731445,91.078125 L125.731445,101.5 L122.018311,110.381348 L116.352539,117.999023 L107.668457,127.148438 L107.668457,131.541016 L109.881104,134.382958 C108.685586,137.038204 106.978229,139.891021 104.759033,142.941406 C101.43024,147.516985 100.871744,147.810771 97.5877296,151.280762 C94.3037151,154.750753 92.4972964,155.910849 90.3012695,157.713858 C88.8372516,158.915863 87.3312295,160.002129 85.7832031,160.972656 L85.027832,157.713858 C84.7458711,154.385776 84.4032604,151.98132 84,150.500488 C83.3951094,148.279241 82.8284909,148.206535 81.560791,146.94873 C80.2930911,145.690926 79.729248,145.971924 78.8706055,145.411133 C78.2981771,145.037272 77.8894857,144.632243 77.6445313,144.196045 L85.027832,135.098877 L88.5612793,128.491699 L90.3012695,123.529785 L91.685791,119.071533 L92.4206543,115.287354 L92.0332031,110.381348 L88.9086914,108.481934 L85.027832,105.980469 L83,103.758789 L65.980957,96.3828125 L59.7802734,94.8972168 Z" id="Path-17" fill="#FFFFFF"></path>
            <path d="M25.6079102,94.1831055 C28.1335093,93.527181 31.886439,93.1992188 36.8666992,93.1992188 C44.3370895,93.1992187 43.8169969,93.0991829 51.1958008,94.1831055 C56.1150034,94.9057205 60.9288055,95.8686111 65.637207,97.0717773 L80,101.13623 L86.9116211,106.658691 C89.0933477,107.644576 90.6149948,108.62472 91.4765625,109.599121 C92.3381302,110.573523 92.7577266,111.788855 92.7353516,113.245117 C93.0276583,114.540005 91.752105,117.886197 88.9086914,123.283691 C86.0652778,128.681186 83.5483508,132.534051 81.3579102,134.842285 C75.8757405,141.036772 71.8723225,145.134103 69.3476562,147.134277 C65.5606568,150.134539 63.6650391,151.280762 59.6962891,151.280762 C55.7275391,151.280762 54.7895508,151.084717 51.1958008,150.580566 C47.6020508,150.076416 44.31295,149.364995 39.8681641,146.355957 C36.9049734,144.349932 34.3686778,141.925127 32.2592773,139.081543 L28.6298828,134.842285 L24.0473633,132.254883 C23.0379899,131.709081 23.4330094,130.256119 25.2324219,127.895996 C27.0318343,125.535873 28.9167627,123.998438 30.887207,123.283691 L39.1582031,119.092285 L52.5957031,115.058594 L59.2844238,113.245117 L65.637207,111.542969 L70.4099121,109.965576 C62.0131603,112.28291 56.0750906,113.980583 52.5957031,115.058594 C42.2788653,118.255037 40.1166992,120.258057 39.1582031,120.763672 C38.199707,121.269287 36.2133789,123.564299 36.2133789,124.867676 C36.2133789,125.736594 37.194987,126.491477 39.1582031,127.132324 C41.9573568,127.641439 43.7708333,127.895996 44.5986328,127.895996 C45.840332,127.895996 48.3020414,128.055785 52.5957031,126.818848 C55.4581443,125.994223 58.1292055,124.815838 60.6088867,123.283691 C64.6886907,120.518323 67.6016139,118.594821 69.3476562,117.513184 C71.9667198,115.890728 72.9089423,115.606109 76.5,114.197266 C80.0910577,112.788422 80.9983843,112.71048 83.5,112.20166 C85.1677438,111.862447 86.9706409,111.642883 88.9086914,111.542969 L83.5,109.599121 L74.9921875,108.481934 L60.6088867,104.702148 L43.3569336,99.8022461 L30.887207,96.4277344 L25.6079102,94.1831055 Z" id="Path" fill="#FFFFFF"></path>
            <ellipse id="Oval" fill="#4F566B" cx="93.5" cy="101.5" rx="3.5" ry="6"></ellipse>
            <ellipse id="Oval" fill="#4F566B" cx="80" cy="101.5" rx="3.5" ry="6"></ellipse>
            <path d="M150.445801,189.346338 L157.818359,185.092285 L162.19043,186.96875 L170.655762,190.008789 L176.178711,186.96875 L180.92041,185.092285 L187.551758,186.96875 L191.242187,188.25293 L201.040039,188.25293 C205.440714,188.274947 209.410929,188.860233 212.950684,190.008789 C216.490438,191.157345 219.341675,192.785437 221.504395,194.893066 L227.649414,201.962891 C228.659896,203.056195 229.527735,204.490114 230.25293,206.264648 C231.340722,208.92645 231.977815,210.865715 231.830078,212.192871 C231.731587,213.077642 231.205871,213.879074 230.25293,214.597168 L226.097168,215.796387 C226.175712,218.228752 225.909436,219.946851 225.29834,220.950684 C224.381696,222.456432 224.980071,222.360824 220.764648,222.589355 C217.954366,222.74171 215.003357,222.407888 211.911621,221.587891 C209.362942,221.06895 206.199856,219.993104 202.422363,218.360352 C196.756124,215.911223 197.617007,216.258253 192.64502,213.260254 C189.330361,211.261588 186.552367,209.384798 184.311035,207.629883 L174.871094,199.592773 C172.879123,199.005981 170.044813,198.027791 166.368164,196.658203 C162.691515,195.288615 159.422797,193.993368 156.562012,192.772461 L150.445801,189.346338 Z" id="Path-5" fill="#FFFFFF"></path>
            <polygon id="Path-6" fill="#FFFFFF" points="177.597168 187.833984 181.466797 190.377441 181.466797 194.519531 200.130371 196.167969 213.005859 199.143066 221.849121 203.717285 228.898926 208.993652 223.566895 199.143066 217.541504 193.09082 211.191895 189.696289 200.130371 188.981934 191.242188 188.25293 181.466797 185.571777"></polygon>
            <path d="M84.0513916,162.180054 L84.0513916,174.218018 C83.9854736,176.027669 84.0889486,177.196533 84.3618164,177.724609 C84.7711182,178.516724 85.7495117,178.994995 86.1982422,179.159424 C86.4973958,179.269043 89.3361003,179.269043 94.7143555,179.159424 L96.466896,180.893799 C90.1085314,181.023438 86.53607,181.023438 85.7495117,180.893799 C84.9629534,180.764159 83.9166481,179.99178 82.6105957,178.57666 C82.505127,168.141113 82.505127,162.51237 82.6105957,161.69043 C82.7160645,160.86849 83.1280111,160.147217 83.8464355,159.526611 L84.7531738,160.972656 L84.0513916,162.180054 Z" id="Path-8" fill="#FFFFFF"></path>
            <polygon id="Rectangle" fill="#FFFFFF" points="81.5 163 85.2531738 163 85.2531738 166 81.5 166"></polygon>
            <path d="M61.5092773,112.261719 C61.0902578,111.285594 60.8039623,110.121695 60.6503906,108.77002 C60.496819,107.418345 60.496819,106.062388 60.6503906,104.702148 L76.5,108.77002 L61.5092773,112.261719 Z" id="Path-16" fill="#FFFFFF"></path>
            <path d="M87.1533203,164 C88.7264175,163.544312 91.3452326,161.741904 95.0097656,158.592773 C98.6742986,155.443643 102.034325,152.108113 105.089844,148.586182 C106.514561,147.150029 107.876459,145.432011 109.175537,143.432129 C110.474616,141.432246 111.946214,138.788204 113.590332,135.5 L118.328613,137.124023 L128.216797,123.952393 L141.296875,108.481934 L162.602051,89.2763672 L179.733887,77.6123047 L188.05127,74.8569336 L194.157227,75.6225586 L197.839844,79.6157227 L197.839844,86.3276367 L194.157227,95.1591797 L186.647949,103.552246 L191.187012,105.236816 L193.133789,108.481934 L191.187012,116.594727 L181.98291,126.684082 L177.340623,130.254395 L179.733887,133.855469 L179.733887,140.248535 L189.418457,140.248535 L194.157227,144.602539 L194.157227,148.586182 L197.168945,151.036621 L197.839844,154.612305 L195.195313,157.713858 C170.594886,171.829043 156.456214,179.881129 152.779297,181.870117 C147.263921,184.853599 146.910561,185.09778 141.296875,186.869629 C135.683189,188.641478 134.393535,188.645245 129.702637,189.153809 C125.011738,189.662372 123.459627,189.538868 120.228027,189.153809 C116.996427,188.768749 114.656569,188.332256 110.532715,186.869629 C107.783479,185.894544 105.150503,184.575859 102.633789,182.913574 C98.4629456,179.772677 95.6455628,177.48215 94.1816406,176.041992 C92.7177185,174.601835 91.4945739,172.917427 90.512207,170.98877 C89.1791319,168.599728 88.3365212,167.038856 87.984375,166.306152 C87.6322288,165.573449 87.3552106,164.804731 87.1533203,164 Z" id="Path-18" fill="#FFFFFF"></path>
        </g>
    </g>
</svg>