<?xml version="1.0" encoding="UTF-8"?>
<svg width="20px" height="20px" viewBox="0 0 20 20" version="1.1" xmlns="http://www.w3.org/2000/svg" xmlns:xlink="http://www.w3.org/1999/xlink">
    <!-- Generator: Sketch 55.2 (78181) - https://sketchapp.com -->
    <title>icon/smilepay</title>
    <desc>Created with Sketch.</desc>
    <g id="icon/smilepay" stroke="none" stroke-width="1" fill="none" fill-rule="evenodd">
        <g id="icon-smilepay" transform="translate(0.000000, 0.000000)">
            <path d="M3.77358491,0 L16.2264151,0 C18.1020992,0 19.6226415,1.52054236 19.6226415,3.39622642 L19.6226415,15.8490566 C19.6226415,17.7247407 18.1020992,19.245283 16.2264151,19.245283 L3.77358491,19.245283 C1.89790085,19.245283 0.377358491,17.7247407 0.377358491,15.8490566 L0.377358491,3.39622642 C0.377358491,1.52054236 1.89790085,0 3.77358491,0 Z" id="Rectangle" fill="#4F566B"></path>
            <path d="M2.70286704,9.81132075 C4.02483109,11.6342731 5.15795068,12.9600642 6.10222583,13.788694 C7.51863854,15.0316387 8.80711969,15.5560879 9.64272553,15.9030439 C10.4783314,16.25 11.6951593,16.8667466 14.2379127,16.9440964 C15.9330817,16.9956629 17.7279913,16.6486454 19.6226415,15.9030439 L19.6226415,19.245283 L8.67611291,19.2795548 C7.90590428,18.6576596 7.30491912,18.134001 6.87315743,17.708579 C6.2255149,17.070446 6.0838774,17.1051639 5.12271521,15.6375295 C4.48194042,14.6591065 3.97326805,13.681807 3.59669811,12.7056309 L2.70286704,9.81132075 Z" id="Path-2" fill="#FFFFFF"></path>
            <path d="M2.0754717,9.81132287 C1.60634301,9.81132287 0.7386122,9.7345484 0.391421354,9.35389684 C0.299885844,9.25353954 0.313951536,8.19612616 0.311624779,8.04936247 C0.258106288,4.67360426 0.330041844,6.57507555 0.377358491,4.07857643 C0.380582682,3.90846311 0.330041844,2.70398097 0.46591147,2.60203103 C0.851504675,2.3127007 1.64150285,2.26413382 2.0754717,2.26413382 C4.05536042,2.26413382 5.66037736,3.95364245 5.66037736,6.03773585 C5.66037736,8.12182924 4.05536042,9.81132287 2.0754717,9.81132287 Z" id="Oval" fill="#FFFFFF"></path>
        </g>
    </g>
</svg>