<?xml version="1.0" encoding="UTF-8"?>
<svg width="138px" height="138px" viewBox="0 0 138 138" version="1.1" xmlns="http://www.w3.org/2000/svg" xmlns:xlink="http://www.w3.org/1999/xlink">
    <g id="Icon/ecpay" stroke="none" stroke-width="1" fill="none" fill-rule="evenodd">
        <g id="icon-ecpay" transform="translate(0.000000, 6.000000)" fill="#4F566B">
            <g id="Group" transform="translate(0.395020, 0.843837)">
                <path d="M57.5177007,103.014111 C22.1623529,103.203513 4.30724791,103.203513 3.95238566,103.014111 C3.42009228,102.730008 2.00625289,100.106375 1.65262912,99.2153638 C1.50260503,98.8373542 1.26391066,97.6834258 1.064705,96.8480356 C0.931901224,96.2911087 0.778659714,95.4710712 0.604980469,94.3879229 L14.9212791,6.17423451 C15.3127232,4.34711792 15.9631461,2.95436283 16.8725479,1.99596921 C17.7819498,1.0375756 18.7954672,0.424306794 19.9131004,0.156162795 L74.6049805,0.156162795 C71.6129401,2.00270978 69.5593558,3.33868241 68.4442275,4.16408068 C67.079595,5.17415751 64.6237435,7.49610272 63.9725172,8.3763374 C61.7983212,11.3151053 63.0007847,9.48244775 60.8084431,12.8871381 C58.6161016,16.2918285 57.9541005,17.550145 56.6967473,19.7851638 C55.8585118,21.2751763 54.6681824,23.531002 53.1257592,26.5526409 L33.6135079,26.5526409 L30.6546954,39.961327 L48.2248063,39.961327 C47.0996358,43.9356463 46.2230971,47.6393442 45.5951903,51.0724209 C44.9672834,54.5054975 44.5139744,58.0782732 44.235263,61.7907479 L27.571306,61.7907479 L24.508898,77.8903024 L44.235263,77.8903024 C44.4200642,80.1209467 44.5854041,81.6814129 44.7312826,82.5717013 C44.9666918,84.0083902 45.2697571,86.2644126 45.5951903,87.4896037 C45.8735753,88.5376679 46.750114,90.4261542 48.2248063,93.1550625 C49.247791,94.8173774 50.3576987,96.3965325 51.5545292,97.8925278 C52.7513598,99.388523 54.7390836,101.095717 57.5177007,103.014111 Z" id="Path"></path>
                <path d="M96.9338064,39.7507875 L116.60498,39.7507875 C116.60498,32.9272988 116.48132,27.8410957 116.234,24.4921781 C115.86302,19.4688017 113.806046,13.0970671 112.04076,10.4866512 C110.275475,7.8762353 109.729549,7.11709003 108.062992,5.34590621 C106.396435,3.57472239 104.726586,2.85872734 102.084259,1.50622674 C99.4419311,0.153726141 93.7205033,-0.120998548 88.8897527,0.408830262 C85.6692524,0.762049468 82.4958234,1.95828873 79.3694659,3.99754803 C76.0676179,6.22409956 73.3978347,8.38713395 71.3601161,10.4866512 C68.3035382,13.6359271 62.5297338,22.1655181 59.1599423,30.938131 C56.9134147,36.7865397 55.4772302,42.25281 54.8513887,47.3369419 C53.2955634,56.2528018 52.5478923,63.614345 52.6083754,69.4215714 C52.6991001,78.132411 53.1135586,83.7025693 55.2726676,87.785616 C57.4317766,91.8686628 60.7655604,96.3827915 64.6084527,99.4889922 C68.451345,102.595193 71.0593776,103.182046 73.0313938,103.60588 C75.0034101,104.029714 77.935185,104.156163 79.7925022,104.156163 C81.6498194,104.156163 84.5603796,103.804261 86.4009703,103.251815 C88.2415611,102.699369 92.2960132,100.455237 97.2446039,95.7908455 C102.193195,91.1264535 105.053562,86.0688107 106.242953,83.8444671 C107.432344,81.6201235 108.100229,80.3350411 108.701198,79.0502755 C109.302167,77.7655099 110.401268,74.5156577 110.792035,73.4890663 C111.307267,72.1354884 112.34204,68.5275603 113.896352,62.665282 L93.6301281,62.665282 C93.3282646,64.4262385 92.9420557,65.9778055 92.4715015,67.3199829 C92.0009472,68.6621604 91.4110543,69.8947609 90.7018228,71.0177845 C88.7919375,74.38028 87.1287867,76.5232927 85.7123702,77.4468225 C83.5877454,78.8321173 80.7702874,79.2648627 78.489349,78.7012858 C76.2084105,78.137709 75.1979707,76.6490612 74.3266396,74.635154 C73.4553084,72.6212468 73.0313938,65.629875 73.0313938,62.665282 C73.0313938,59.7006891 72.962704,56.3660942 74.7885527,48.5285785 C76.6144014,40.6910627 77.1774989,38.631888 79.3694659,33.9103184 C81.5614329,29.1887489 83.0592799,27.8654899 85.3183273,25.8470951 C87.5773747,23.8287003 89.8859636,23.3384469 92.0917355,23.8287003 C94.2975074,24.3189536 95.7507992,26.4870992 96.1406688,27.790236 C96.5305385,29.0933727 96.9338064,31.2757384 96.9338064,33.2499474 C96.9338064,34.5660868 96.9338064,36.7330334 96.9338064,39.7507875 Z" id="Path-2"></path>
            </g>
            <polygon id="Path-4" points="2.86230469 116.365967 99.4580078 116.365967 107.074219 100.19043 134.018555 100.19043 123.139038 125.151611 2 125.151611"></polygon>
            <polygon id="Path-5" points="108.57251 93.942627 111.635498 88 137.705566 88 135.474121 93.942627"></polygon>
        </g>
    </g>
</svg>
