<?xml version="1.0" encoding="UTF-8"?>
<svg width="512px" height="512px" viewBox="0 0 512 512" version="1.1" xmlns="http://www.w3.org/2000/svg" xmlns:xlink="http://www.w3.org/1999/xlink">
    <!-- Generator: Sketch 55.2 (78181) - https://sketchapp.com -->
    <title>svg/taiwan-flag</title>
    <desc>Created with Sketch.</desc>
    <g id="svg/taiwan-flag" stroke="none" stroke-width="1" fill="none" fill-rule="evenodd">
        <g id="Group" transform="translate(0.000000, 77.000000)" fill-rule="nonzero">
            <path d="M503.171017,358 L8.82798276,358 C3.95299228,358 0,353.781254 0,348.578526 L0,9.42147391 C0,4.21874562 3.95299228,0 8.82798276,0 L503.172017,0 C508.047008,0 512,4.21874562 512,9.42147391 L512,348.578526 C512,353.782322 508.046008,358 503.171017,358 Z" id="Path" fill="#FF4B55"></path>
            <path d="M8.81884958,0.000998703331 L246.9168,0.000998703331 C251.786747,0.000998703331 255.735649,3.94887297 255.735649,8.81755171 L255.735649,158.691962 C255.735649,163.560641 251.786747,167.508515 246.9168,167.508515 L8.81884958,167.508515 C3.94890263,167.508515 2.55795385e-13,163.559642 2.55795385e-13,158.690963 L2.55795385e-13,8.81655301 C2.55795385e-13,3.94787427 3.94890263,0.000998703331 8.81884958,0.000998703331 Z" id="Path" fill="#41479B"></path>
            <path d="M96.3030762,83.7542575 C96.3030762,75.043567 99.8334131,67.1578055 105.54149,61.4482186 L79.0949313,53.8850382 C77.5595244,53.4466075 76.4596656,55.3521334 77.6064757,56.4616928 L97.3969412,75.5918551 L70.6906515,82.2671882 C69.1422582,82.6536864 69.1422582,84.8548285 70.6906515,85.2423254 L97.3969412,91.9176585 L77.6064757,111.047821 C76.4586667,112.15738 77.5595244,114.062906 79.0949313,113.624475 L105.54149,106.061295 C99.8334131,100.350709 96.3030762,92.4649479 96.3030762,83.7542575 Z" id="Path" fill="#F5F5F5"></path>
            <path d="M105.555476,61.4342367 C111.26655,55.7276459 119.154366,52.1982283 127.867325,52.1982283 C136.580285,52.1982283 144.4681,55.7276459 150.179174,61.4342367 L157.744325,34.9945647 C158.18287,33.4595577 156.276848,32.3599853 155.166999,33.5064968 L136.031854,53.2908097 L129.354782,26.5914749 C128.968183,25.0434847 126.766467,25.0434847 126.37887,26.5914749 L119.701798,53.2908097 L100.566652,33.5064968 C99.4568039,32.3589866 97.5507815,33.4595577 97.9893265,34.9945647 L105.555476,61.4342367 Z" id="Path" fill="#F5F5F5"></path>
            <path d="M150.179174,106.074278 C144.4681,111.780869 136.580285,115.310287 127.867325,115.310287 C119.154366,115.310287 111.26655,111.780869 105.555476,106.074278 L97.9903255,132.51395 C97.5517805,134.048957 99.4578028,135.14853 100.567651,134.002018 L119.702797,114.217705 L126.379869,140.91704 C126.766467,142.46503 128.968183,142.46503 129.355781,140.91704 L136.032853,114.217705 L155.167998,134.002018 C156.277846,135.149528 158.183869,134.048957 157.745324,132.51395 L150.179174,106.074278 Z" id="Path" fill="#F5F5F5"></path>
            <path d="M185.043999,82.2661895 L158.337709,75.5908564 L178.127176,56.4606941 C179.274985,55.3511347 178.174127,53.4456088 176.63872,53.8840395 L150.192161,61.4472199 C155.900238,67.1568068 159.430575,75.0425683 159.430575,83.7532588 C159.430575,92.4639492 155.900238,100.349711 150.192161,106.059298 L176.63872,113.622478 C178.174127,114.060909 179.273986,112.155383 178.127176,111.045823 L158.337709,91.9156611 L185.043999,85.240328 C186.593391,84.8548285 186.593391,82.6546851 185.043999,82.2661895 Z" id="Path" fill="#F5F5F5"></path>
            <ellipse id="Oval" fill="#F5F5F5" cx="127.867325" cy="83.7562549" rx="25.1339211" ry="25.1273758"></ellipse>
        </g>
    </g>
</svg>